<svg version="1.2" xmlns="http://www.w3.org/2000/svg" viewBox="0 0 88 100" width="88" height="100">
	<style>
		.s0 { fill: #ed8001 } 
	</style>
	<path class="s0" d="m39.42 14.81h21.16l-20.98-0.41zm37.28 33.49l-16.12-33.49-29.41 7.69zm0 0l-51.14-24.41 15.57 54.37zm0 0l-35.56 29.96 29.96-11.76zm-5.6 18.2l-29.96 11.76 17.76 0.04zm-12.2 11.8l-17.76-0.04 8.86 7.34zm-17.76-0.04l-15.58-54.37 0.57 37.24zm0 0l-15.01-17.14 2.77 5.37zm-15.01-17.14l-0.57-37.23-2.25 24.41zm-2.83-12.83l2.26-24.4-2.26 0.1zm16.3-33.9l20.98 0.42-0.18-0.42zm37.1 33.9l-15.54-32.4-0.58-1.08zm0 0l-5.6 18.2 2.77-5.34zm-5.6 18.2l-12.2 11.8 7.05-6.28zm-29.96 11.76l-12.24-11.76 5.19 5.47zm-15.01-17.13l-2.82-12.83 1.11 6.85zm5.03-38.62l29.42-7.69-27.91 6.96zm29.99-6.6l15.54 32.4-14.49-30.86zm12.71 45.26l-2.77 5.34 1.53-2.48zm-44.97 5.33l-2.77-5.37 1.24 2.87zm3.76-44.73l27.92-6.96-26.59 6.15zm44.04 26.53l-49.08-24.71-2.06 0.3zm0 0l-2.83 12.87 1.72-5.98zm-42.71-27.34l26.59-6.15-24.41 4.39zm42.71 27.34l-47.22-25.19-1.87 0.47zm0 0l-45.53-25.8-1.68 0.62zm-40.53-29.1l24.41-4.39-22.82 2.62zm26.04-1.76l14.49 30.86-12.92-29.1zm1.58 1.77l12.92 29.1-10.74-27.34zm-26.03-1.76l22.82-2.63-21.76 1.09zm28.2 3.52l10.74 27.34-9.41-26.52zm1.33 0.81l9.41 26.52-7.9-25.8zm-28.47-5.87l21.75-1.09h-21.16zm29.97 6.6l7.91 25.8-6.23-25.18zm1.69 0.61l6.22 25.19-4.35-24.72zm1.88 0.48l4.34 24.71-2.27-24.41zm2.07 0.31l2.27 24.4v-24.3z"/>
	<path class="s0" d="m84.41 13.35l1.6 45.39 1.59-11.14zm3.19 34.25l-1.59 11.14 1.24-6.61zm-1.58 11.14l-10.22 11.56-25.8 29.6zm0 0l-36.01 41.17 26.48-22.84zm-9.53 18.32l-26.48 22.84 12.37-9.76zm-26.48 22.84l-25.8-29.6-3.9 2.8zm0 0l-29.7-26.8 7.48 8.3zm-29.7-26.8l-2.54-21.62-5.01 0.71zm0 0l-7.55-20.91 3.66 14.02zm-7.55-20.91l4.55-4.79-4.9-33.9zm-0.35-38.69l4.9 33.9v-29.3zm72.01-0.15l-1.81 4.75 0.1 29.3zm-1.81 4.75l-13.17-11.35-7.83-1.85zm0 0l-21-13.2 6.94 7.61zm-14.06-5.58l-6.94-7.62 2.68 3.66zm-30.24-7.62l-14.75 6.49 5.07 2.97zm0 0l-9.68 9.45 5.11-3.81zm-9.68 9.46l-16.22-0.86 9.2 3.75zm-7.02 2.9l-9.2-3.75 4.9 4.6zm11.24-12.98l32.02-3.69-0.26-0.58zm51.57 9.07l3.19 34.26v-34.1zm1.6 45.38l-9.53 18.33 5.37-7.3zm-9.54 18.32l-14.1 13.08 9.84-8.73zm-26.48 22.84l-13.35-16.67-12.45-12.93zm-29.7-26.8l-3.89-6.9 1.75 3.59zm-7.56-20.91l-0.34-38.69v34.1zm69.85-34.09l-14.06-5.59 6.04 3.46zm-14.07-5.59l-4.26-3.96 1.92 1.99zm-30.23-7.61l-12.64 5.47-2.12 1.02zm-9.68 9.46l-7.02 2.89 3.76-1.28zm4.23-10.08l31.75-4.28-30.27 2.11zm49 65.49l-5.37 7.3 3.23-3.96zm-69.1-17.57l5.01-0.72-0.46-4.07zm61.83-36.22l-6.04-3.46 2.78 1.85zm-45.96-1.62l-13.01-1-3.21 0.15zm5.71-12.25l30.27-2.1-29.45 0.58zm-17.92 64.09l-3.66-14.02 1.24 6.63zm12.21-51.85l-10.09-1.44-2.92 0.43zm6.53-13.77l29.45-0.58h-29.2zm-14.84 72.52l-1.2-15.26-1.34-6.37zm8.32-58.75l-7.46-2.1-2.64 0.67zm4.23-10.08l32.84-2.17-0.83-1.53zm-12.54 68.83l0.96-8.39-2.16-6.87zm8.32-58.75l-5.08-2.96-2.37 0.86zm4.22-10.08h34.34l-1.49-2.16zm-12.54 68.83l2.34-5.32-1.38-3.07zm13.43-62.56l-5.11 3.81 2.78-1.84zm-13.43 62.56l3.9-2.8-1.56-2.52zm18-68.2l-4.57 5.64 1.91-1.99zm-10.52 76.5l-7.48-8.3 3.22 3.96zm10.52-76.51l-10.76 4.33-1.88 1.14zm11.7 95l-22.21-18.49 9.84 8.73zm-11.7-95l-7.69 1.85-3.07 2.47zm11.7 95v-5.6l-13.35-11.06zm-11.7-95l-5.45-0.63-2.23 2.48zm11.7 95l25.8-29.6-12.45 12.94zm11.6-95l5.58-0.63h-34.34zm-11.6 95l13.35-16.66-13.35 11.06zm11.6-95l-28.76-0.63 5.46 0.63zm24.41 53.84l-8.65 9.01-1.56 2.55zm-24.41-53.84l7.82 1.85-2.24-2.47zm24.41 53.83l-4.16 11.03 1.74-3.62zm-3.41-40.63l-10.1-8.88-3.08-2.47zm3.42 40.63l-7.28 5.94-1.38 3.08zm-3.41-40.64l-8.22-7.73-1.88-1.14zm3.41 40.63l-5.11-0.93-2.16 6.87zm-3.42-40.64l-6.1-6.71-2.12-1.02zm3.41 40.63l-3.77-7.28-1.34 6.35zm-3.41-40.64l-8.02-2.13 3.75 1.28zm3.41 40.64l-3.31-11.34-0.46 4.06zm-3.41-40.64l-3.73-5.85-2.38-0.86zm1.81-4.75l-1.71 34.05 3.32 11.34zm-1.81 4.75l-1.1-5.18-2.63-0.67zm0.1 29.3l-0.1-29.3v29.3zm-0.1-29.3l1.8-4.75-2.9-0.43z"/>
</svg>