<svg version="1.2" xmlns="http://www.w3.org/2000/svg" viewBox="0 0 137 136" width="137" height="136">
	<style>
		.s0 { fill: #16a531 } 
	</style>
	<path class="s0" d="m75.58 135.67h-13.89l6.95 0.35zm-13.89 0l-23.53-11.42-1.92 3.55zm0 0l-25.45-7.87 12.19 5.16zm-25.45-7.87l-16.97-19.12-3.11 2.57zm0 0l-20.07-16.56 9.23 9.23zm-20.07-16.56l-8.64-24.23-3.85 1.19zm0 0l-12.49-23.03 5.16 12.19zm-12.49-23.04l0.97-20.21-3.68 6.95zm-2.71-13.26l3.68-6.95h-4.03zm6.56-25.95l-1.56-7.45-5.36 26.46zm0 0l-6.91 19.01 5.34-12.89zm-6.92 19.01l5.36-26.45-3.97 12.76zm22.79-45.23l-2.85-2.84-14.59 21.62zm-17.44 18.78l14.59-21.63-8.31 10.07zm37.78-32.5l-1.57-3.71-21.62 14.59zm-23.2 10.88l21.63-14.59-11.56 6.27zm48.08-15.91v-4.03l-26.45 5.35zm-26.45 1.33l26.45-5.36-13.69 1.39zm45.45 1.56l7.45-1.56-26.45-5.35zm-19.01-6.92l26.45 5.36-12.76-3.97zm45.23 22.79l2.85-2.85-21.62-14.59zm-18.78-17.44l21.63 14.59-10.07-8.31zm32.5 37.78l3.71-1.57-14.59-21.62zm-10.87-23.2l14.59 21.63-6.28-11.56zm15.91 48.08h4.03l-5.35-26.45zm-1.33-26.45l5.36 26.45-1.39-13.69zm5.36 26.45l-6.91 19 1.55 7.45zm0 0l-5.35 26.45 3.97-12.76zm-5.36 26.46l-17.43 18.76 2.84 2.86zm0 0l-14.59 21.62 8.31-10.07zm-14.59 21.63l-23.19 10.86 1.56 3.73zm0 0l-21.62 14.59 11.55-6.28zm-21.62 14.59l-26.45 1.31-6.95 3.69zm0 0l-33.39 5 20.64-1.03zm-33.4 5l-17.94-8.72-5.59-2.7zm-25.45-7.87l-12.84-14.57-4.13-4.55zm-20.07-16.55l-6.48-18.36-2.16-5.88zm-12.49-23.04l-2.71-13.26 1.03 6.75zm2.27-33.09l-5.33 12.88 4.36-6.53zm-0.97 6.35l-4.36 6.53h4.03zm18.43-38.69l-17.44 18.77 13.31-14.23zm20.34-13.72l-23.19 10.88 17.6-8.18zm-1.57-3.72l12.76-3.97-6.51 1.68zm45.46 1.56l-19.01-6.91 12.88 5.33zm26.22 15.89l-18.78-17.45 14.23 13.31zm13.73 20.34l-10.88-23.19 8.18 17.6zm3.71-1.57l3.97 12.76-1.68-6.51zm5.36 26.45l-5.33 12.88-1.58 6.13zm-5.36 26.45l-13.3 14.22-4.13 4.55zm-14.6 21.62l-17.59 8.17-5.59 2.7zm-21.63 14.59l-12.76 3.97 6.52-1.68zm-91.41-42.46l1.3-13.67-0.33-6.54zm-3.06-20.2l1.38-13.7-1.03 6.75zm3.06 20.21l2.27-7.33-0.97-6.35zm-1.68-33.89l3.97-12.76-2.29 6.24zm1.68 33.9l3.84-1.2-1.57-6.12zm6-45.1l-3.71-1.56 1.55 7.44zm-0.84 57.28l-5.16-12.19 2.29 6.25zm3.55-62.88l-6.42 4.03 3.72 1.57zm3.78 73.72l-7.33-10.85 3.41 5.61zm3.11-83.93l-13.3 14.23 9.62-9.3zm-3.11 83.93l-3.79-12.77-2.7-5.59zm-10.2-69.7l6.28-11.55-3.41 5.61zm10.2 69.69l-0.58-7.49-3.21-5.27zm-0.57-79l-9.63 9.3 6.42-4.03zm0.57 79l3.11-2.56-3.69-4.93zm-3.92-81.25l8.32-10.07-4.4 4.83zm13.15 90.48l-9.23-9.23 4.4 4.84zm2.56-101.83l-7.4 1.28 2.85 2.85zm8.29 109.16l-8.29-10.44-4.55-4.14zm1.93-116.05l-17.6 8.18 12.32-4.97zm-1.92 116.05l-10.85-7.33 5.24 3.92zm-3.35-112.85l-12.33 4.98 7.4-1.29zm3.35 112.85l-3.36-6.76-4.92-3.69zm-15.68-107.87l10.07-8.31-5.24 3.92zm15.68 107.87l1.92-3.55-5.28-3.21zm-5.61-116.18l11.56-6.28-5.95 2.87zm17.8 121.34l-12.19-5.16 5.94 2.87zm1.2-126.06l-7.44-1.56 1.57 3.71zm12.06 128.78l-12.07-6.57-5.87-2.16zm-5.94-130.35l-13.57 0.02 7.45 1.56zm5.93 130.35l-13.26-2.71 6.51 1.68zm6.95-131.66l-26.45 1.33 19.92-1zm-6.95 131.66l-5.93-4.99-6.13-1.58zm0.41-131.32l-19.92 0.99 13.57-0.02zm-0.41 131.32l0.41-4.01-6.35-0.98zm-6.74-134.3l13.69-1.38-6.95 0.35zm6.75 134.3l6.95-3.69-6.54-0.33zm19.83-130.35l-12.88-5.33 6.53 4.36zm0.81 129.32l-20.63 1.03h13.89zm-7.16-130.29l-6.53-4.36v4.03zm19.91 126.32l-19.91 0.98-6.54 0.33zm-26.45-130.68l13.7 1.38-6.75-1.03zm26.45 130.69l-13.57 0.01-6.35 0.97zm-12.75-129.3l12.76 3.97-6.25-2.29zm12.76 129.3l-7.44-1.57-6.13 1.58zm-1.56-121.62l1.57-3.71-7.45 1.55zm1.57 121.62l-1.57-3.72-5.87 2.16zm4.02-118.93l-4.02-6.41-1.57 3.72zm7.53 112.64l-11.56 6.28 5.95-2.87zm2.68-105.75l-14.23-13.31 9.3 9.63zm7.39 97.43l-10.07 8.31 5.24-3.92zm-21.62-110.74l11.55 6.28-5.61-3.41zm21.62 110.74l-12.31 4.96-5.28 3.21zm-12.32-101.12l-9.3-9.62 4.02 6.41zm12.32 101.12l-7.39 1.28-4.92 3.69zm-10.07-104.47l10.07 8.31-4.83-4.39zm10.06 104.46l-2.84-2.85-4.54 4.13zm1.28-88.75l-1.28-7.4-2.85 2.85zm7.03 78.68l-8.32 10.07 4.4-4.83zm-0.14-68.48l-8.17-17.6 4.97 12.32zm6.41 56.93l-9.62 9.3-3.69 4.92zm-9.62-62.2l-4.97-12.33 1.28 7.4zm9.62 62.21l-6.27 11.55 3.41-5.61zm-14.59-74.53l8.31 10.07-3.92-5.24zm14.59 74.53l-6.41 4.02-3.21 5.28zm-6.27-64.46l6.27 11.55-2.86-5.94zm6.27 64.46l-3.71-1.58-2.7 5.6zm-1.55-45.46l1.56-7.45-3.72 1.57zm1.56 45.46l-1.56-7.45-2.15 5.88zm0.02-39.33l-0.02-13.58-1.56 7.45zm3.95 26.57l-3.97 12.76 2.29-6.25zm-2.65-13.69l-1.32-26.45 0.99 19.92zm4.03 0l-1.38 13.69 1.03-6.75zm-4.36-6.53l-0.99-19.92 0.02 13.58zm4.36 6.53l-4.36 6.53-0.97 6.35zm-1.39-13.7l1.39 13.7-0.35-6.95zm1.38 13.69h-4.03l-0.33 6.54z"/>
</svg>