<svg x="0" y="0" viewBox="0 0 98.52 98.51" xmlns="http://www.w3.org/2000/svg">
	<path d="M 49.24,0.04 L 54.277397,0.2543823 49.24,0 Z M 54.277397,0.2543823 L 63.891064,2.2150412 59.16934,1.000996 Z M 63.891064,2.2150412 L 72.72484,5.9462276 68.417816,3.8717184 Z M 72.72484,5.9462276 L 80.58069,11.249542 76.787384,8.413769 Z M 80.58069,11.249542 L 87.26056,17.92659 84.08,14.428749 Z M 87.26056,17.92659 L 92.56641,25.778967 90.09761,21.718262 Z M 92.56641,25.778967 L 96.300186,34.608276 94.64218,30.083904 Z M 96.300186,34.608276 L 98.263855,44.216125 97.51566,39.327282 Z M 98.263855,44.216125 L 97.91241,57.01908 98.52,49.25 Z M 97.91241,57.01908 L 93.32829,71.30615 96.15109,64.40203 Z M 93.32829,71.30615 L 84.86717,83.30713 89.53625,77.63875 Z M 84.86717,83.30713 L 73.266815,92.28045 79.413284,88.2186 Z M 73.266815,92.28045 L 58.151245,97.708755 66.52,95.4 Z M 58.151245,97.708755 L 40.730003,97.78125 49.25,98.51 Z M 40.730003,97.78125 L 25.75125,92.57001 32.69,95.65 Z M 25.75125,92.57001 L 15.200527,84.85504 19.42,88.47 Z M 15.200527,84.85504 L 8.094237,76.326675 11.411718,80.79406 Z M 8.094237,76.326675 L 3.035918,66.33113 5.28875,71.49249 Z M 3.035918,66.33113 L 0.35087892,55.185272 1.3764063,60.882187 Z M 0.35087892,55.185272 L 9.2,49.28 0,49.28 Z M 59.16,88.09 L 65.41112,85.89873 59.14,88.07 Z M 9.52375,44.22875 L 0,49.28 9.2,49.28 Z M 0,49.28 L 3.1,32.05 0.79625005,40.41375 Z M 3.1,32.05 L 10.284063,19.150936 6.220352,25.299881 Z M 10.284063,19.150936 L 20.8675,9.025 15.1976185,13.695272 Z M 20.8675,9.025 L 34.10219,2.4090624 27.200195,5.2322264 Z M 34.10219,2.4090624 L 49.24,0.04 41.47996,0.64761716 Z M 49.24,0.04 L 63.891064,2.2150412 54.277397,0.2543823 Z M 63.891064,2.2150412 L 80.58069,11.249542 72.72484,5.9462276 Z M 80.58069,11.249542 L 92.56641,25.778967 87.26056,17.92659 Z M 92.56641,25.778967 L 98.263855,44.216125 96.300186,34.608276 Z M 98.263855,44.216125 L 93.32829,71.30615 97.91241,57.01908 Z M 93.32829,71.30615 L 73.266815,92.28045 84.86717,83.30713 Z M 73.266815,92.28045 L 40.730003,97.78125 58.151245,97.708755 Z M 40.730003,97.78125 L 15.200527,84.85504 25.75125,92.57001 Z M 15.200527,84.85504 L 3.035918,66.33113 8.094237,76.326675 Z M 3.035918,66.33113 L 9.2,49.28 0.35087892,55.185272 Z M 59.17,88.1 L 65.41112,85.89873 59.16,88.09 Z M 10.44,39.38 L 0,49.28 9.52375,44.22875 Z M 0,49.28 L 10.284063,19.150936 3.1,32.05 Z M 10.284063,19.150936 L 34.10219,2.4090624 20.8675,9.025 Z M 34.10219,2.4090624 L 63.891064,2.2150412 49.24,0.04 Z M 63.891064,2.2150412 L 92.56641,25.778967 80.58069,11.249542 Z M 92.56641,25.778967 L 93.32829,71.30615 98.263855,44.216125 Z M 40.730003,97.78125 L 3.035918,66.33113 15.200527,84.85504 Z M 3.035918,66.33113 L 9.407202,53.36857 9.2,49.28 Z M 12.607949,33.105156 L 0,49.28 10.44,39.38 Z M 10.284063,19.150936 L 63.891064,2.2150412 34.10219,2.4090624 Z M 3.035918,66.33113 L 10.015273,57.340706 9.407202,53.36857 Z M 15.738594,27.350626 L 0,49.28 12.607949,33.105156 Z M 3.035918,66.33113 L 11.00391,61.176083 10.015273,57.340706 Z M 15.738594,27.350626 L 10.284063,19.150936 0,49.28 Z M 3.035918,66.33113 L 12.352812,64.85437 11.00391,61.176083 Z M 19.73338,22.213905 L 10.284063,19.150936 15.738594,27.350626 Z M 3.035918,66.33113 L 14.041674,68.35524 12.352812,64.85437 Z M 24.493752,17.7925 L 10.284063,19.150936 19.73338,22.213905 Z M 3.035918,66.33113 L 16.050194,71.658356 14.041674,68.35524 Z M 29.921154,14.183906 L 10.284063,19.150936 24.493752,17.7925 Z M 3.035918,66.33113 L 18.35807,74.743385 16.050194,71.658356 Z M 35.917034,11.485624 L 10.284063,19.150936 29.921154,14.183906 Z M 3.035918,66.33113 L 20.945,77.59 18.35807,74.743385 Z M 35.917034,11.485624 L 63.891064,2.2150412 10.284063,19.150936 Z M 40.730003,97.78125 L 20.945,77.59 3.035918,66.33113 Z M 42.382835,9.7951565 L 63.891064,2.2150412 35.917034,11.485624 Z M 40.730003,97.78125 L 23.79068,80.177864 20.945,77.59 Z M 49.22,9.21 L 63.891064,2.2150412 42.382835,9.7951565 Z M 40.730003,97.78125 L 26.874805,82.48664 23.79068,80.177864 Z M 53.311977,9.4173155 L 63.891064,2.2150412 49.22,9.21 Z M 40.730003,97.78125 L 30.177074,84.496 26.874805,82.48664 Z M 57.28688,10.025703 L 63.891064,2.2150412 53.311977,9.4173155 Z M 40.730003,97.78125 L 33.677185,86.18562 30.177074,84.496 Z M 61.124435,11.014833 L 63.891064,2.2150412 57.28688,10.025703 Z M 40.730003,97.78125 L 37.354836,87.535164 33.677185,86.18562 Z M 64.804375,12.364375 L 63.891064,2.2150412 61.124435,11.014833 Z M 40.730003,97.78125 L 41.189724,88.52429 37.354836,87.535164 Z M 68.30643,14.053995 L 63.891064,2.2150412 64.804375,12.364375 Z M 40.730003,97.78125 L 45.161545,89.132675 41.189724,88.52429 Z M 71.610306,16.06336 L 63.891064,2.2150412 68.30643,14.053995 Z M 73.266815,92.28045 L 45.161545,89.132675 40.730003,97.78125 Z M 74.695755,18.372139 L 63.891064,2.2150412 71.610306,16.06336 Z M 73.266815,92.28045 L 49.25,89.34 45.161545,89.132675 Z M 77.542496,20.96 L 63.891064,2.2150412 74.695755,18.372139 Z M 73.266815,92.28045 L 54.3,89.01624 49.25,89.34 Z M 80.13025,23.806612 L 63.891064,2.2150412 77.542496,20.96 Z M 73.266815,92.28045 L 59.17,88.1 54.3,89.01624 Z M 80.13025,23.806612 L 92.56641,25.778967 63.891064,2.2150412 Z M 73.266815,92.28045 L 65.41112,85.89873 59.17,88.1 Z M 82.43875,26.89164 L 92.56641,25.778967 80.13025,23.806612 Z M 93.32829,71.30615 L 65.41112,85.89873 73.266815,92.28045 Z M 84.44771,30.194756 L 92.56641,25.778967 82.43875,26.89164 Z M 93.32829,71.30615 L 71.16203,82.76547 65.41112,85.89873 Z M 86.13687,33.695625 L 92.56641,25.778967 84.44771,30.194756 Z M 93.32829,71.30615 L 76.295364,78.76854 71.16203,82.76547 Z M 87.485954,37.373917 L 92.56641,25.778967 86.13687,33.695625 Z M 93.32829,71.30615 L 80.71375,74.006256 76.295364,78.76854 Z M 88.474686,41.209297 L 92.56641,25.778967 87.485954,37.373917 Z M 93.32829,71.30615 L 84.31979,68.576935 80.71375,74.006256 Z M 89.082794,45.181435 L 92.56641,25.778967 88.474686,41.209297 Z M 93.32829,71.30615 L 87.0161,62.57891 84.31979,68.576935 Z M 89.29,49.27 L 92.56641,25.778967 89.082794,45.181435 Z M 93.32829,71.30615 L 88.70529,56.11049 87.0161,62.57891 Z M 88.70529,56.11049 L 92.56641,25.778967 89.29,49.27 Z M 92.56641,25.778967 L 88.70529,56.11049 93.32829,71.30615 Z " style="fill:#FFFFFF;fill-opacity:1;" />
	<path d="M 78.150566,43.329575 L 78.75,49.27 78.597664,46.25618 Z M 78.75,49.27 L 78.16317,55.149727 78.60089,52.252625 Z M 78.16317,55.149727 L 76.47969,60.63031 77.45129,57.947044 Z M 76.47969,60.63031 L 73.815125,65.59761 75.26282,63.185257 Z M 73.815125,65.59761 L 66.00488,73.53582 70.285,69.9375 Z M 66.00488,73.53582 L 61.090317,76.27844 63.619686,75.021225 Z M 61.090317,76.27844 L 55.656837,78.05121 58.431217,77.2932 Z M 55.656837,78.05121 L 49.82,78.74 52.781616,78.53824 Z M 49.82,78.74 L 46.237305,78.58821 49.25,78.74 Z M 46.237305,78.58821 L 40.49223,77.41742 43.31344,78.1425 Z M 40.49223,77.41742 L 35.21309,75.18726 37.7875,76.4275 Z M 35.21309,75.18726 L 30.510508,72.01398 32.782814,73.71124 Z M 30.510508,72.01398 L 34.8,63.72 28.41,70.11 Z M 49.25,49.27 L 52.26581,19.952103 49.25,19.8 Z M 52.26581,19.952103 L 58.021507,21.124554 55.19459,20.398554 Z M 58.021507,21.124554 L 63.310394,23.356031 60.73172,22.115313 Z M 63.310394,23.356031 L 68.01375,26.528168 65.742676,24.831915 Z M 68.01375,26.528168 L 72.01286,30.522614 70.10875,28.43 Z M 72.01286,30.522614 L 75.189026,35.221 73.71123,32.791214 Z M 75.189026,35.221 L 77.42354,40.50498 76.43141,37.797188 Z M 77.42354,40.50498 L 78.75,49.27 78.150566,43.329575 Z M 78.75,49.27 L 76.47969,60.63031 78.16317,55.149727 Z M 76.47969,60.63031 L 66.00488,73.53582 73.815125,65.59761 Z M 66.00488,73.53582 L 55.656837,78.05121 61.090317,76.27844 Z M 55.656837,78.05121 L 46.237305,78.58821 49.82,78.74 Z M 46.237305,78.58821 L 35.21309,75.18726 40.49223,77.41742 Z M 35.21309,75.18726 L 34.8,63.72 30.510508,72.01398 Z M 49.25,49.27 L 58.021507,21.124554 52.26581,19.952103 Z M 58.021507,21.124554 L 68.01375,26.528168 63.310394,23.356031 Z M 68.01375,26.528168 L 75.189026,35.221 72.01286,30.522614 Z M 75.189026,35.221 L 78.75,49.27 77.42354,40.50498 Z M 78.75,49.27 L 66.00488,73.53582 76.47969,60.63031 Z M 66.00488,73.53582 L 46.237305,78.58821 55.656837,78.05121 Z M 46.237305,78.58821 L 34.8,63.72 35.21309,75.18726 Z M 49.25,49.27 L 68.01375,26.528168 58.021507,21.124554 Z M 68.01375,26.528168 L 78.75,49.27 75.189026,35.221 Z M 78.75,49.27 L 46.237305,78.58821 66.00488,73.53582 Z M 46.237305,78.58821 L 49.25,49.27 34.8,63.72 Z M 49.25,49.27 L 78.75,49.27 68.01375,26.528168 Z M 78.75,49.27 L 49.25,49.27 46.237305,78.58821 Z " style="fill:#FFFFFF;fill-opacity:1;" />
</svg>
