<svg version="1.2" xmlns="http://www.w3.org/2000/svg" viewBox="0 0 143 141" width="143" height="141">
	<style>
		.s0 { fill: #c948ff } 
	</style>
	<path class="s0" d="m139.13 81.29l0.28 17 3.2-11.62zm0.52-8.29l-6.9 19.01 1.53 17.15zm-5.37 36.16l-21.75 18.13 6.42 0.31zm-21.75 18.13l-21.88 6.81-19.03 6.91zm0 0l-40.91 13.72 21.94-3.63zm-40.91 13.72l-18.99-6.91-21.91-6.8zm0 0l-40.9-13.71 18.97 10.08zm-40.9-13.71l-14.91-8.26 8.47 8.58zm-14.91-8.26l-6.84-9.87h-0.02zm-6.85-9.87l-4.84-27.87-3.47 5.38zm-4.84-27.87l3.52-8.3h-4.04zm6.4-27.31l4.68-18.95-11.6 37.96zm-6.92 19l11.6-37.95-8.55 17.78zm3.06-20.18l8.54-17.78-4.9 8.54zm29.22-32.87l9.17-9.57-29.85 24.66zm-20.67 15.09l29.84-24.66-16.74 10.21zm49.9-25.71l6.51-8.68-26.57 9.73zm-5.46-7.68l11.98-1v-0.02zm42.47 15.09l-3.94-6.37-26.56-9.72zm14.75 11.03l11.18 7.27-29.87-24.66zm-18.69-17.39l29.87 24.66-13.11-14.46zm36.14 49.74l5.33 12.88-11.61-37.96zm-6.28-25.07l11.6 37.96-3.05-20.18zm11.6 37.96l-5.37 36.16 4.85-27.87zm-5.37 36.16l-15.33 18.44 8.46-8.59zm-21.75 18.13l-18.97 10.09 9.93-4.31zm-40.91 13.72l-21.93-3.63 10.67 2.69zm-40.9-13.71l-12.13-18.55-9.62 0.42zm-21.75-18.13l-8.31-22.49 3.21 11.62zm-4.84-27.87l3.85-1.76-0.33-6.54zm6.4-27.3l-6.92 19 5.34-12.87zm-1.58 6.12l-5.34 12.88 4.37-6.53zm26.93-40.17l-20.68 15.09 15.75-11.4zm9.17-9.56l26.57-9.73-11.98 0.99zm57.07 6.35l-30.5-16.08 24.91 13.39zm14.75 11.03l-18.69-17.4 14.14 13.26zm11.18 7.27l8.55 17.78-3.65-9.24zm11.09 46.24l-4.85 27.87 5.13-10.87zm-130.16 27.88l-0.99-29.63-3.85 1.76zm-0.99-42.7l-4.37 6.53h4.04zm0.98 42.71l-0.01-23.3-0.97-6.34zm-5.36-36.17l3.05-20.18-2.27 9.85zm5.36 36.17l1.56-17.17-1.58-6.12zm3.72-61.06l2.52-13.07-4.68 18.95zm-3.71 61.05l3.71-11.29-2.15-5.87zm6.41-66.65l-0.18-7.48-2.52 13.08zm-6.41 66.64l6.41-5.7-2.7-5.59zm9.63-71.92l-3.39-2.2 0.18 7.48zm-9.62 71.92l9.62-0.42-3.21-5.28zm13.31-76.85l-7.07 2.73 3.38 2.2zm8.44 94.98l-21.75-18.13 6.85 9.87zm0.23-103.66l-15.75 11.4 11.21-7.27zm-0.24 103.66l-8.44-13.63-3.69-4.92zm-15.51-92.26l13.1-14.45-7.06 6.75zm15.51 92.26l-4.31-9.08-4.13-4.55zm-4.31-99.52l-11.2 7.27 7.07-2.73zm4.31 99.53l0.23-4.95-4.54-4.13zm-2.41-106.71l16.74-10.2-8.77 4.51zm2.41 106.71l5.17-1.26-4.93-3.69zm10.44-110.55l3.89-6.36-9.17 9.57zm-10.44 110.55l10.44 1.95-5.27-3.21zm16.03-113.25l-1.7-3.66-3.89 6.35zm-16.03 113.26l21.91 6.8-5.88-2.16zm21.91-115.41l-7.58-1.5 1.7 3.66zm-2.94 125.49l-18.97-10.08 9.04 5.77zm9.07-127.07l-13.71 0.08 7.58 1.5zm-28.04 116.99l16.04 4.64-5.6-2.7zm34.39-117.96l-20.06 1.05 13.71-0.07zm6.52 131.66l-12.86-5.33-6.13-1.58zm-26.57-130.62l14.59-8.73-11.66 3.03zm26.57 130.62l-6.52-4.36-6.34-0.97zm0.02-132l-0.02-8.35-6.52 8.68zm-0.02 132l0.02-4.03-6.53-0.33zm24.9-126.96l-24.9-13.39 19.03 11.23zm-24.91 126.97l19.03-6.91-6.13 1.57zm0-140.35l26.56 9.72-2.92-5.67zm0 140.35l12.9-5.33-6.34 0.97zm19.03-129.11l-19.03-11.24 12.9 9.66zm-19.03 129.12l6.55-4.37-6.53 0.34zm0-140.35l23.64 4.05-11.66-3.04zm21.93 136.72l-21.93 3.63 11.26-0.93zm-9.04-127.07l-12.9-9.65 6.56 8.68zm28 116.98l-16 4.65-5.88 2.16zm-34.35-117.95l-6.56-8.68 0.02 8.35zm34.36 117.95l-10.41 1.96-5.59 2.69zm-0.21-103.65l-14.14-13.26 9.21 9.57zm0.21 103.66l-5.14-1.25-5.27 3.21zm-14.35-116.91l16.75 10.2-7.98-5.69zm36.1 98.78l-26.88 16.88 5.13 1.25zm-26.88-89.21l-9.22-9.57 3.94 6.36zm26.88 89.21l-21.95 13.2-4.93 3.68zm-19.35-88.57l13.12 14.45-6.05-7.7zm19.35 88.58l-17.41 9.06-4.55 4.13zm-13.28-76.84l7.05 2.72-11.18-7.27zm13.28 76.84l-13.28 4.52-4.13 4.55zm-9.59-71.92l3.35-2.2-7.04-2.72zm9.59 71.91l-9.59-0.41-3.69 4.93zm-6.38-66.64l0.15-7.48-3.36 2.2zm6.38 66.64l-6.38-5.68-3.21 5.28zm-3.68-61.05l-2.55-13.07-0.15 7.48zm3.69 61.04l-3.69-11.27-2.7 5.59zm0.05-49.04l-6.28-25.08 4.7 18.95zm-0.05 49.04l-1.53-17.15-2.15 5.88zm-1.53-55.17l-4.71-18.95 2.55 13.07zm6.66 44.3l-5.13 10.87h0.02zm-2.81-45.47l3.05 20.18-0.78-10.33zm3.06 20.18l-5.32 12.88-1.58 6.13zm-4.35-6.54l4.35 6.54-5.33-12.89zm4.35 6.54l-4.35 6.53-0.97 6.35zm-4.02 0h4.02l-4.35-6.53zm4.02 0h-4.02l-0.33 6.53z"/>
</svg>