<svg version="1.2" xmlns="http://www.w3.org/2000/svg" viewBox="0 0 143 141" width="143" height="141">
	<style>
		.s0 { fill: #000000 } 
	</style>
	<path class="s0" d="m139.1 81.3l0.09 17.03 3.21-11.63zm0 0l-11.86 37.7 11.95-20.67zm0 0l-123.34 37.77 77.65 18.3zm0 0l-45.69 56.08 33.83-18.38zm-45.69 56.08h-43.82l21.91 3.62zm-21.91 3.63l-21.92-3.63 10.67 2.69zm21.92-3.62l-77.65-18.3 33.82 18.3zm-43.82 0l-33.83-18.3 14.84 8.22zm-33.83-18.3l-5.46-75.49-6.7 38.52zm-11.95-20.75l-0.21-16.23-3 4.6zm-0.21-16.22l6.69-38.52-5.91 19.09zm0.78-19.43l5.91-19.09-3.64 9.24zm11.38 56.41l29.34-108.78-34.8 33.29zm-5.47-75.5l34.8-33.28-8.79 4.56zm34.81-33.28l38.45-8.67-23.9-0.05zm14.55-8.71l23.9 0.05-11.95-1.04zm-14.55 8.72l69.78 10.27-31.33-18.94zm38.45-8.66l31.33 18.94-16.78-10.18zm55.55 79.67l-94-71-29.34 108.77zm-94-71l94 71-24.22-60.72zm91.44 42.51l2.56 28.49 0.5-8.3zm2.64 45.51l-11.95 20.67 6.86-9.8zm-11.95 20.68l-33.82 18.37 18.98-10.07zm-33.82 18.37l-21.91 3.63 11.24-0.93zm-43.83 0l-18.98-10.08 9.04 5.77zm-33.82-18.3l-12.16-36.97 0.21 16.22zm-12.16-36.97l0.78-19.44-0.78 10.34zm6.69-38.52l26.02-28.73-15.07 12.49zm34.81-33.28l14.55-8.71-11.65 3.01zm38.45-8.66l14.55 8.76-2.9-5.7zm31.32 18.94l24.23 60.72-2.56-28.49zm21.67 32.24l3.05 20.19-0.78-10.34zm-24.14 74.49l-18.99 10.07 9.94-4.3zm-81.8 0l-14.84-8.23 8.44 8.53zm-14.84-8.23l-11.95-20.75 5.09 10.88zm5.48-91.73l15.07-12.49-7.99 5.72zm76.85-16.95l16.78 10.18-7.99-5.68zm16.78 10.17l21.67 32.24-8.55-17.79zm12.36 98.43l-14.84 8.3 6.4 0.3zm-116.94-75.42l10.95-16.24-6.05 7.71zm104.58-23.01l13.13 14.45-6.05-7.7zm13.12 14.45l8.55 17.79-3.65-9.25z"/>
</svg>