<svg x="2.399994" y="6.6000004" viewBox="0 0 149.7 145.4" xmlns="http://www.w3.org/2000/svg">
	<path d="M 145.5,24.6 L 149.55,30.662498 149.1,29.8 Z M 149.55,30.662498 L 149.7,120.4 149.7,31.6 Z M 149.7,120.4 L 149.1,122.2 149.55,121.337494 Z M 145.5,127.4 L 145.42502,132.2988 145.5,130.8 Z M 145.42502,132.2988 L 144.84676,135.15521 145.20488,133.75293 Z M 144.84676,135.15521 L 143.74524,137.77547 144.35782,136.49844 Z M 143.74524,137.77547 L 142.1779,140.10217 143.0162,138.9791 Z M 142.1779,140.10217 L 140.20218,142.0779 141.2375,141.1375 Z M 140.20218,142.0779 L 137.87546,143.64523 139.0791,142.9162 Z M 137.87546,143.64523 L 135.25519,144.74675 136.59843,144.25781 Z M 135.25519,144.74675 L 132.3988,145.32501 133.85292,145.10487 Z M 132.3988,145.32501 L 21.2,145.4 130.9,145.4 Z M 21.2,145.4 L 18.24707,145.10487 19.701197,145.32501 Z M 18.24707,145.10487 L 15.501563,144.25781 16.8448,144.74675 Z M 15.501563,144.25781 L 13.020899,142.9162 14.224537,143.64523 Z M 13.020899,142.9162 L 10.862501,141.1375 11.897828,142.0779 Z M 10.862501,141.1375 L 9.08379,138.9791 9.922096,140.10217 Z M 9.08379,138.9791 L 7.742188,136.49844 8.354761,137.77547 Z M 7.742188,136.49844 L 6.8951178,133.75293 7.2532473,135.15521 Z M 6.8951178,133.75293 L 6.6,130.8 6.674976,132.2988 Z M 6.6,127.4 L 2.5500002,121.375 3,122.2 Z M 2.5500002,121.375 L 2.4,31.6 2.4,120.4 Z M 2.4,31.6 L 3,29.8 2.5500002,30.625 Z M 6.6,24.6 L 6.674976,19.701197 6.6,21.2 Z M 6.674976,19.701197 L 7.2532473,16.8448 6.8951178,18.24707 Z M 7.2532473,16.8448 L 8.354761,14.224537 7.742188,15.501563 Z M 8.354761,14.224537 L 9.922096,11.897828 9.08379,13.020899 Z M 9.922096,11.897828 L 11.897828,9.922096 10.862501,10.862501 Z M 11.897828,9.922096 L 14.224537,8.354761 13.020899,9.08379 Z M 14.224537,8.354761 L 16.8448,7.2532473 15.501563,7.742188 Z M 16.8448,7.2532473 L 19.701197,6.674976 18.24707,6.8951178 Z M 19.701197,6.674976 L 130.9,6.6 21.2,6.6 Z M 130.9,6.6 L 133.85292,6.8951178 132.3988,6.674976 Z M 133.85292,6.8951178 L 136.59843,7.742188 135.25519,7.2532473 Z M 136.59843,7.742188 L 139.0791,9.08379 137.87546,8.354761 Z M 139.0791,9.08379 L 141.2375,10.862501 140.20218,9.922096 Z M 141.2375,10.862501 L 143.0162,13.020899 142.1779,11.897828 Z M 143.0162,13.020899 L 144.35782,15.501563 143.74524,14.224537 Z M 144.35782,15.501563 L 145.20488,18.24707 144.84676,16.8448 Z M 145.20488,18.24707 L 145.5,21.2 145.42502,19.701197 Z M 145.5,24.6 L 149.7,120.4 149.55,30.662498 Z M 149.7,120.4 L 145.5,127.4 149.1,122.2 Z M 145.5,127.4 L 144.84676,135.15521 145.42502,132.2988 Z M 144.84676,135.15521 L 142.1779,140.10217 143.74524,137.77547 Z M 142.1779,140.10217 L 137.87546,143.64523 140.20218,142.0779 Z M 137.87546,143.64523 L 132.3988,145.32501 135.25519,144.74675 Z M 132.3988,145.32501 L 18.24707,145.10487 21.2,145.4 Z M 18.24707,145.10487 L 13.020899,142.9162 15.501563,144.25781 Z M 13.020899,142.9162 L 9.08379,138.9791 10.862501,141.1375 Z M 9.08379,138.9791 L 6.8951178,133.75293 7.742188,136.49844 Z M 6.8951178,133.75293 L 6.6,127.4 6.6,130.8 Z M 6.6,127.4 L 2.4,31.6 2.5500002,121.375 Z M 2.4,31.6 L 6.6,24.6 3,29.8 Z M 6.6,24.6 L 7.2532473,16.8448 6.674976,19.701197 Z M 7.2532473,16.8448 L 9.922096,11.897828 8.354761,14.224537 Z M 9.922096,11.897828 L 14.224537,8.354761 11.897828,9.922096 Z M 14.224537,8.354761 L 19.701197,6.674976 16.8448,7.2532473 Z M 19.701197,6.674976 L 133.85292,6.8951178 130.9,6.6 Z M 133.85292,6.8951178 L 139.0791,9.08379 136.59843,7.742188 Z M 139.0791,9.08379 L 143.0162,13.020899 141.2375,10.862501 Z M 143.0162,13.020899 L 145.20488,18.24707 144.35782,15.501563 Z M 145.20488,18.24707 L 145.5,24.6 145.5,21.2 Z M 145.5,24.6 L 145.5,127.4 149.7,120.4 Z M 145.5,127.4 L 142.1779,140.10217 144.84676,135.15521 Z M 142.1779,140.10217 L 132.3988,145.32501 137.87546,143.64523 Z M 132.3988,145.32501 L 13.020899,142.9162 18.24707,145.10487 Z M 13.020899,142.9162 L 6.8951178,133.75293 9.08379,138.9791 Z M 6.8951178,133.75293 L 2.4,31.6 6.6,127.4 Z M 6.6,24.6 L 9.922096,11.897828 7.2532473,16.8448 Z M 9.922096,11.897828 L 19.701197,6.674976 14.224537,8.354761 Z M 19.701197,6.674976 L 139.0791,9.08379 133.85292,6.8951178 Z M 139.0791,9.08379 L 145.20488,18.24707 143.0162,13.020899 Z M 145.20488,18.24707 L 145.5,127.4 145.5,24.6 Z M 145.5,127.4 L 132.3988,145.32501 142.1779,140.10217 Z M 132.3988,145.32501 L 6.8951178,133.75293 13.020899,142.9162 Z M 6.8951178,133.75293 L 6.6,24.6 2.4,31.6 Z M 6.6,24.6 L 19.701197,6.674976 9.922096,11.897828 Z M 19.701197,6.674976 L 145.20488,18.24707 139.0791,9.08379 Z M 145.20488,18.24707 L 132.3988,145.32501 145.5,127.4 Z M 132.3988,145.32501 L 6.6,24.6 6.8951178,133.75293 Z M 6.6,24.6 L 145.20488,18.24707 19.701197,6.674976 Z M 145.20488,18.24707 L 6.6,24.6 132.3988,145.32501 Z " style="fill:#000000;fill-opacity:1;" />
</svg>
