<svg x="0" y="0" viewBox="0 0 171.1 209.00002" xmlns="http://www.w3.org/2000/svg">
	<path d="M 119.3,38.40042 L 120,3.6005898 103.6,12.10059 Z M 120,3.6005898 L 124.565704,2.299757 123.058014,2.5759816 Z M 124.565704,2.299757 L 127.50989,2.1923664 126.05156,2.173692 Z M 127.50989,2.1923664 L 130.32106,2.6422515 128.93497,2.3503594 Z M 130.32106,2.6422515 L 134.18848,4.267118 131.66249,3.062622 Z M 134.18848,4.267118 L 138.45293,7.9793634 136.46718,5.9204855 Z M 138.45293,7.9793634 L 141.26466,12.987142 140.1,10.40039 Z M 141.26466,12.987142 L 142.01427,17.978088 141.8797,15.532969 Z M 142.01427,17.978088 L 141.11856,22.327065 141.7375,20.262714 Z M 141.11856,22.327065 L 139.69977,24.879799 140.22656,24.111359 Z M 139.69977,24.879799 L 138.52786,26.1319 139.13066,25.555805 Z M 138.52786,26.1319 L 119.3,38.40042 137.9,26.60062 Z M 119.3,38.40042 L 124.565704,2.299757 120,3.6005898 Z M 124.565704,2.299757 L 130.32106,2.6422515 127.50989,2.1923664 Z M 130.32106,2.6422515 L 138.45293,7.9793634 134.18848,4.267118 Z M 138.45293,7.9793634 L 142.01427,17.978088 141.26466,12.987142 Z M 142.01427,17.978088 L 139.69977,24.879799 141.11856,22.327065 Z M 139.69977,24.879799 L 119.3,38.40042 138.52786,26.1319 Z M 119.3,38.40042 L 130.32106,2.6422515 124.565704,2.299757 Z M 130.32106,2.6422515 L 142.01427,17.978088 138.45293,7.9793634 Z M 142.01427,17.978088 L 119.3,38.40042 139.69977,24.879799 Z M 119.3,38.40042 L 142.01427,17.978088 130.32106,2.6422515 Z M 26.5,134.20001 L 57.8999,132.10101 41.6001,120.90002 Z M 57.8999,132.10101 L 40.3999,42.60062 41.6001,106.10101 Z M 40.3999,42.60062 L 85.40479,17.186111 82.8999,18.400421 Z M 85.40479,17.186111 L 90.59742,15.877923 87.99524,16.3363 Z M 90.59742,15.877923 L 94.36116,15.983226 93.13749,15.837919 Z M 94.36116,15.983226 L 96.66963,16.621292 95.54162,16.243229 Z M 96.66963,16.621292 L 98.7314,17.745079 97.73596,17.120789 Z M 98.7314,17.745079 L 100.47264,19.38153 99.6467,18.49754 Z M 100.47264,19.38153 L 124,58.700222 101.2,20.400421 Z M 124,58.700222 L 122.86621,62.855732 123.55156,60.756496 Z M 122.86621,62.855732 L 121.027756,66.46012 121.7625,65.25027 Z M 121.027756,66.46012 L 119.1405,68.708725 120.15723,67.62603 Z M 119.1405,68.708725 L 116.62688,70.46747 117.967186,69.66896 Z M 116.62688,70.46747 L 113.40369,71.42225 115.10918,71.06498 Z M 113.40369,71.42225 L 107.725975,71.148315 111.5,71.500015 Z M 107.725975,71.148315 L 101.51387,69.258896 104.407814,70.373535 Z M 101.51387,69.258896 L 96.87207,66.34284 99.012505,67.88759 Z M 96.87207,66.34284 L 92.3,61.50002 95.06094,64.707855 Z M 92.3,61.50002 L 87.3,53.29982 88.675,55.89992 Z M 78.1001,59.50002 L 89.6001,119.10101 89.6001,71.29982 Z M 89.6001,119.10101 L 96.33742,96.31087 94.3999,95.79982 Z M 96.33742,96.31087 L 103.57966,99.74065 100.89995,98.16264 Z M 103.57966,99.74065 L 107.43808,103.09083 106.21249,101.83305 Z M 107.43808,103.09083 L 109.56113,106.06683 108.56406,104.499596 Z M 109.56113,106.06683 L 115.3,122.687515 110.4,107.80002 Z M 117.2,130.30002 L 146.74687,133.33849 148.7,130.10101 Z M 146.74687,133.33849 L 136.63945,145.53047 140.95,141.0009 Z M 136.63945,145.53047 L 125.25273,154.0644 131.40312,150.0131 Z M 125.25273,154.0644 L 111.02578,160.32332 118.2,157.30002 Z M 78,189.00002 L 60.87342,208.3797 64.7,209.00002 Z M 60.87342,208.3797 L 44.988045,203.3506 51.18746,205.76253 Z M 44.988045,203.3506 L 31.55798,195.61116 38.33277,200.01408 Z M 31.55798,195.61116 L 13.964104,177.36095 25,190.00002 Z M 13.964104,177.36095 L 0,154.20001 6.1625366,165.83751 Z M 0,154.20001 L 57.8999,132.10101 26.5,134.20001 Z M 57.8999,132.10101 L 85.40479,17.186111 40.3999,42.60062 Z M 85.40479,17.186111 L 94.36116,15.983226 90.59742,15.877923 Z M 94.36116,15.983226 L 98.7314,17.745079 96.66963,16.621292 Z M 98.7314,17.745079 L 124,58.700222 100.47264,19.38153 Z M 124,58.700222 L 121.027756,66.46012 122.86621,62.855732 Z M 121.027756,66.46012 L 116.62688,70.46747 119.1405,68.708725 Z M 116.62688,70.46747 L 107.725975,71.148315 113.40369,71.42225 Z M 107.725975,71.148315 L 96.87207,66.34284 101.51387,69.258896 Z M 96.87207,66.34284 L 87.3,53.29982 92.3,61.50002 Z M 89.6001,119.10101 L 103.57966,99.74065 96.33742,96.31087 Z M 103.57966,99.74065 L 109.56113,106.06683 107.43808,103.09083 Z M 109.56113,106.06683 L 117.2,130.30002 115.3,122.687515 Z M 117.2,130.30002 L 136.63945,145.53047 146.74687,133.33849 Z M 136.63945,145.53047 L 111.02578,160.32332 125.25273,154.0644 Z M 84.50625,180.88326 L 60.87342,208.3797 78,189.00002 Z M 60.87342,208.3797 L 31.55798,195.61116 44.988045,203.3506 Z M 31.55798,195.61116 L 0,154.20001 13.964104,177.36095 Z M 85.40479,17.186111 L 98.7314,17.745079 94.36116,15.983226 Z M 98.7314,17.745079 L 121.027756,66.46012 124,58.700222 Z M 121.027756,66.46012 L 107.725975,71.148315 116.62688,70.46747 Z M 107.725975,71.148315 L 87.3,53.29982 96.87207,66.34284 Z M 89.6001,119.10101 L 109.56113,106.06683 103.57966,99.74065 Z M 117.2,130.30002 L 111.02578,160.32332 136.63945,145.53047 Z M 84.50625,180.88326 L 31.55798,195.61116 60.87342,208.3797 Z M 31.55798,195.61116 L 57.8999,132.10101 0,154.20001 Z M 85.40479,17.186111 L 121.027756,66.46012 98.7314,17.745079 Z M 121.027756,66.46012 L 87.3,53.29982 107.725975,71.148315 Z M 89.6001,119.10101 L 117.2,130.30002 109.56113,106.06683 Z M 117.2,130.30002 L 104.493744,163.8986 111.02578,160.32332 Z M 93.299995,172.1379 L 31.55798,195.61116 84.50625,180.88326 Z M 85.40479,17.186111 L 87.3,53.29982 121.027756,66.46012 Z M 89.6001,119.10101 L 104.493744,163.8986 117.2,130.30002 Z M 104.493744,163.8986 L 31.55798,195.61116 93.299995,172.1379 Z M 85.40479,17.186111 L 78.1001,59.50002 87.3,53.29982 Z M 89.6001,119.10101 L 31.55798,195.61116 104.493744,163.8986 Z M 57.8999,132.10101 L 78.1001,59.50002 85.40479,17.186111 Z M 89.6001,119.10101 L 57.8999,132.10101 31.55798,195.61116 Z M 57.8999,132.10101 L 89.6001,119.10101 78.1001,59.50002 Z M 153,58.700222 L 134.1,59.80082 121.9,73.90041 Z M 134.1,59.80082 L 139.7,33.60062 122.8,43.60062 Z M 139.7,33.60062 L 142.32793,32.692265 141.00525,33.065224 Z M 142.32793,32.692265 L 144.99219,32.40847 143.6597,32.475445 Z M 144.99219,32.40847 L 147.62598,32.698868 146.31708,32.485043 Z M 147.62598,32.698868 L 150.1625,33.513096 148.91058,33.04365 Z M 150.1625,33.513096 L 154.67657,36.511585 152.53497,34.800793 Z M 154.67657,36.511585 L 158,41.001022 156.52051,38.59512 Z M 158,41.001022 L 159.62344,46.10084 159.04434,43.55797 Z M 159.62344,46.10084 L 159.60695,49.796474 159.73143,48.587452 Z M 159.60695,49.796474 L 158.99733,52.11961 159.36249,50.97562 Z M 158.99733,52.11961 L 157.90198,54.281017 158.51073,53.223164 Z M 157.90198,54.281017 L 156.31503,56.238533 157.17032,55.2879 Z M 156.31503,56.238533 L 153,58.700222 155.33536,57.127647 Z M 153,58.700222 L 139.7,33.60062 134.1,59.80082 Z M 139.7,33.60062 L 144.99219,32.40847 142.32793,32.692265 Z M 144.99219,32.40847 L 150.1625,33.513096 147.62598,32.698868 Z M 150.1625,33.513096 L 158,41.001022 154.67657,36.511585 Z M 158,41.001022 L 159.60695,49.796474 159.62344,46.10084 Z M 159.60695,49.796474 L 157.90198,54.281017 158.99733,52.11961 Z M 157.90198,54.281017 L 153,58.700222 156.31503,56.238533 Z M 153,58.700222 L 144.99219,32.40847 139.7,33.60062 Z M 144.99219,32.40847 L 158,41.001022 150.1625,33.513096 Z M 158,41.001022 L 157.90198,54.281017 159.60695,49.796474 Z M 157.90198,54.281017 L 144.99219,32.40847 153,58.700222 Z M 144.99219,32.40847 L 157.90198,54.281017 158,41.001022 Z M 116.27344,80.91875 L 149,66.60062 121,78.29982 Z M 149,66.60062 L 154.3703,65.61139 151.66817,65.9355 Z M 154.3703,65.61139 L 159.5625,66.112816 157.02792,65.65994 Z M 159.5625,66.112816 L 161.89551,67.00166 160.7591,66.50076 Z M 161.89551,67.00166 L 163.94843,68.358154 162.96188,67.61948 Z M 163.94843,68.358154 L 165.64276,70.21391 164.84534,69.22164 Z M 165.64276,70.21391 L 166.9,72.60062 166.33093,71.33892 Z M 166.9,72.60062 L 168.19218,78.53175 167.7998,75.64587 Z M 168.19218,78.53175 L 167.8883,82.47975 168.1041,81.22078 Z M 167.8883,82.47975 L 167.13005,84.80317 167.5625,83.675446 Z M 167.13005,84.80317 L 165.95871,86.83597 166.59433,85.858246 Z M 165.95871,86.83597 L 164.40125,88.54065 165.22656,87.731674 Z M 164.40125,88.54065 L 162.48459,89.879715 163.48613,89.258224 Z M 162.48459,89.879715 L 127.9,100.79982 161.4,90.40041 Z M 127.9,100.79982 L 123.19345,101.97299 127.39,100.94331 Z M 123.19345,101.97299 L 118.61113,102.17688 120.90816,102.24858 Z M 118.61113,102.17688 L 116.387085,101.617065 117.484695,101.96679 Z M 116.387085,101.617065 L 114.32074,100.428314 115.32891,101.11011 Z M 114.32074,100.428314 L 112.49681,98.46977 113.373184,99.55407 Z M 112.49681,98.46977 L 111,95.60062 111.70222,97.15782 Z M 111,95.60062 L 110.137695,92.30584 110.44983,93.905464 Z M 110.137695,92.30584 L 110.15781,89.381454 110.04617,90.79881 Z M 110.15781,89.381454 L 110.9209,86.804016 110.45519,88.05083 Z M 110.9209,86.804016 L 112.2875,84.550064 111.537476,85.63807 Z M 112.2875,84.550064 L 116.27344,80.91875 114.118164,82.59613 Z M 116.27344,80.91875 L 154.3703,65.61139 149,66.60062 Z M 154.3703,65.61139 L 161.89551,67.00166 159.5625,66.112816 Z M 161.89551,67.00166 L 165.64276,70.21391 163.94843,68.358154 Z M 165.64276,70.21391 L 168.19218,78.53175 166.9,72.60062 Z M 168.19218,78.53175 L 167.13005,84.80317 167.8883,82.47975 Z M 167.13005,84.80317 L 164.40125,88.54065 165.95871,86.83597 Z M 164.40125,88.54065 L 127.9,100.79982 162.48459,89.879715 Z M 127.9,100.79982 L 118.61113,102.17688 123.19345,101.97299 Z M 118.61113,102.17688 L 114.32074,100.428314 116.387085,101.617065 Z M 114.32074,100.428314 L 111,95.60062 112.49681,98.46977 Z M 111,95.60062 L 110.15781,89.381454 110.137695,92.30584 Z M 110.15781,89.381454 L 112.2875,84.550064 110.9209,86.804016 Z M 112.2875,84.550064 L 154.3703,65.61139 116.27344,80.91875 Z M 154.3703,65.61139 L 165.64276,70.21391 161.89551,67.00166 Z M 165.64276,70.21391 L 167.13005,84.80317 168.19218,78.53175 Z M 167.13005,84.80317 L 127.9,100.79982 164.40125,88.54065 Z M 127.9,100.79982 L 114.32074,100.428314 118.61113,102.17688 Z M 114.32074,100.428314 L 110.15781,89.381454 111,95.60062 Z M 110.15781,89.381454 L 154.3703,65.61139 112.2875,84.550064 Z M 154.3703,65.61139 L 167.13005,84.80317 165.64276,70.21391 Z M 167.13005,84.80317 L 114.32074,100.428314 127.9,100.79982 Z M 114.32074,100.428314 L 154.3703,65.61139 110.15781,89.381454 Z M 154.3703,65.61139 L 114.32074,100.428314 167.13005,84.80317 Z M 122.2,124.51352 L 121.3,123.20102 121.646866,123.946335 Z M 121.3,123.20102 L 118.39688,111.94122 118.5,112.90002 Z M 118.39688,111.94122 L 119.203125,110.39787 118.65,111.0759 Z M 119.203125,110.39787 L 161,97.90041 120,110.001015 Z M 161,97.90041 L 163.75371,97.78853 162.44754,97.73467 Z M 163.75371,97.78853 L 165.45145,98.24355 164.92014,98.04483 Z M 165.45145,98.24355 L 166.4113,98.77139 165.94844,98.48645 Z M 166.4113,98.77139 L 167.59708,99.857056 166.84021,99.09624 Z M 167.59708,99.857056 L 168.71251,101.763214 168.22064,100.751755 Z M 168.71251,101.763214 L 169.30762,104.06781 169.0743,102.87428 Z M 169.30762,104.06781 L 169.39532,106.63373 169.4141,105.326675 Z M 169.39532,106.63373 L 168.1,112.001015 168.98848,109.32384 Z M 168.1,112.001015 L 165.55937,116.53851 166.96445,114.30961 Z M 165.55937,116.53851 L 161.79999,120.47601 163.84961,118.617424 Z M 161.79999,120.47601 L 156.54062,123.251015 159.3754,122.04398 Z M 156.54062,123.251015 L 149.5,124.30102 153.26056,124.026794 Z M 149.5,124.30102 L 122.90312,124.87445 123.7,125.001015 Z M 122.90312,124.87445 L 121.3,123.20102 122.2,124.51352 Z M 121.3,123.20102 L 119.203125,110.39787 118.39688,111.94122 Z M 119.203125,110.39787 L 163.75371,97.78853 161,97.90041 Z M 163.75371,97.78853 L 166.4113,98.77139 165.45145,98.24355 Z M 166.4113,98.77139 L 168.71251,101.763214 167.59708,99.857056 Z M 168.71251,101.763214 L 169.39532,106.63373 169.30762,104.06781 Z M 169.39532,106.63373 L 165.55937,116.53851 168.1,112.001015 Z M 165.55937,116.53851 L 156.54062,123.251015 161.79999,120.47601 Z M 156.54062,123.251015 L 122.90312,124.87445 149.5,124.30102 Z M 122.90312,124.87445 L 119.203125,110.39787 121.3,123.20102 Z M 119.203125,110.39787 L 166.4113,98.77139 163.75371,97.78853 Z M 166.4113,98.77139 L 169.39532,106.63373 168.71251,101.763214 Z M 169.39532,106.63373 L 156.54062,123.251015 165.55937,116.53851 Z M 156.54062,123.251015 L 119.203125,110.39787 122.90312,124.87445 Z M 119.203125,110.39787 L 169.39532,106.63373 166.4113,98.77139 Z M 169.39532,106.63373 L 119.203125,110.39787 156.54062,123.251015 Z " style="fill:#FFFFFF;fill-opacity:1;" />
</svg>
