<svg x="11.650002" y="12.010002" viewBox="0 0 139.63 139.99" xmlns="http://www.w3.org/2000/svg">
	<path d="M 75.64,139.98 L 69.10739,139.65907 75.64,139.99 Z M 69.10739,139.65907 L 56.633873,137.10886 62.761208,138.6879 Z M 56.633873,137.10886 L 45.165466,132.25684 50.757812,134.95438 Z M 45.165466,132.25684 L 34.961628,125.36226 39.88926,129.04868 Z M 34.961628,125.36226 L 26.281813,116.68431 30.415,121.23 Z M 26.281813,116.68431 L 19.385473,106.48222 22.594494,111.75758 Z M 19.385473,106.48222 L 14.532064,95.01521 16.687187,100.890625 Z M 14.532064,95.01521 L 11.981039,82.54249 12.9525385,88.88836 Z M 11.981039,82.54249 L 16.17,76 11.65,76.01 Z M 16.477634,69.92849 L 11.65,76.01 16.17,76 Z M 11.65,76.01 L 12.9525385,63.130783 11.981039,69.477295 Z M 12.9525385,63.130783 L 16.687187,51.12625 14.532064,57.00295 Z M 16.687187,51.12625 L 22.594494,40.256096 19.385473,45.533146 Z M 22.594494,40.256096 L 30.415,30.78 26.281813,35.32756 Z M 30.415,30.78 L 39.88926,22.957655 34.961628,26.645878 Z M 39.88926,22.957655 L 50.757812,17.04875 45.165466,19.747791 Z M 50.757812,17.04875 L 62.761208,13.312969 56.633873,14.892988 Z M 62.761208,13.312969 L 75.64,12.01 69.10739,12.341152 Z M 75.64,12.01 L 88.51879,13.31213 82.17261,12.340931 Z M 88.51879,13.31213 L 100.52219,17.045782 94.646126,14.89121 Z M 100.52219,17.045782 L 111.39074,22.951855 106.11453,19.74346 Z M 111.39074,22.951855 L 120.865,30.77125 116.318375,26.63858 Z M 120.865,30.77125 L 128.6855,40.244865 124.998184,35.317474 Z M 128.6855,40.244865 L 134.59282,51.113594 131.89453,45.521034 Z M 134.59282,51.113594 L 138.32747,63.118336 136.74796,56.990154 Z M 138.32747,63.118336 L 139.63,76 139.29897,69.465744 Z M 139.63,76 L 138.32788,88.881226 139.29907,82.534134 Z M 138.32788,88.881226 L 134.59424,100.88484 136.7488,95.00891 Z M 134.59424,100.88484 L 128.68817,111.75197 131.89658,106.47664 Z M 128.68817,111.75197 L 120.86875,121.22375 125.001434,116.67845 Z M 120.86875,121.22375 L 111.395134,129.0413 116.322525,125.355484 Z M 111.395134,129.0413 L 100.526405,134.94577 106.118965,132.24884 Z M 100.526405,134.94577 L 88.52167,138.67828 94.64984,137.0997 Z M 88.52167,138.67828 L 75.64,139.98 82.174255,139.64917 Z M 75.64,139.98 L 56.633873,137.10886 69.10739,139.65907 Z M 56.633873,137.10886 L 34.961628,125.36226 45.165466,132.25684 Z M 34.961628,125.36226 L 19.385473,106.48222 26.281813,116.68431 Z M 19.385473,106.48222 L 11.981039,82.54249 14.532064,95.01521 Z M 11.981039,82.54249 L 16.477634,82.07151 16.17,76 Z M 17.380451,64.03033 L 11.65,76.01 16.477634,69.92849 Z M 11.65,76.01 L 16.687187,51.12625 12.9525385,63.130783 Z M 16.687187,51.12625 L 30.415,30.78 22.594494,40.256096 Z M 30.415,30.78 L 50.757812,17.04875 39.88926,22.957655 Z M 50.757812,17.04875 L 75.64,12.01 62.761208,13.312969 Z M 75.64,12.01 L 100.52219,17.045782 88.51879,13.31213 Z M 100.52219,17.045782 L 120.865,30.77125 111.39074,22.951855 Z M 120.865,30.77125 L 134.59282,51.113594 128.6855,40.244865 Z M 134.59282,51.113594 L 139.63,76 138.32747,63.118336 Z M 139.63,76 L 134.59424,100.88484 138.32788,88.881226 Z M 134.59424,100.88484 L 120.86875,121.22375 128.68817,111.75197 Z M 120.86875,121.22375 L 100.526405,134.94577 111.395134,129.0413 Z M 100.526405,134.94577 L 75.64,139.98 88.52167,138.67828 Z M 75.64,139.98 L 34.961628,125.36226 56.633873,137.10886 Z M 19.385473,106.48222 L 16.477634,82.07151 11.981039,82.54249 Z M 18.848316,58.335632 L 11.65,76.01 17.380451,64.03033 Z M 19.385473,106.48222 L 17.380451,87.96967 16.477634,82.07151 Z M 20.851095,52.87453 L 11.65,76.01 18.848316,58.335632 Z M 19.385473,106.48222 L 18.848316,93.66437 17.380451,87.96967 Z M 20.851095,52.87453 L 16.687187,51.12625 11.65,76.01 Z M 19.385473,106.48222 L 20.851095,99.12547 18.848316,93.66437 Z M 23.358662,47.67716 L 16.687187,51.12625 20.851095,52.87453 Z M 19.385473,106.48222 L 23.358662,104.322845 20.851095,99.12547 Z M 26.34088,42.77365 L 16.687187,51.12625 23.358662,47.67716 Z M 34.961628,125.36226 L 23.358662,104.322845 19.385473,106.48222 Z M 29.76762,38.194138 L 16.687187,51.12625 26.34088,42.77365 Z M 34.961628,125.36226 L 26.34088,109.22635 23.358662,104.322845 Z M 33.60875,33.96875 L 16.687187,51.12625 29.76762,38.194138 Z M 34.961628,125.36226 L 29.76762,113.80586 26.34088,109.22635 Z M 33.60875,33.96875 L 30.415,30.78 16.687187,51.12625 Z M 34.961628,125.36226 L 33.60875,118.03125 29.76762,113.80586 Z M 37.834137,30.12762 L 30.415,30.78 33.60875,33.96875 Z M 34.961628,125.36226 L 37.834137,121.872375 33.60875,118.03125 Z M 42.41365,26.70088 L 30.415,30.78 37.834137,30.12762 Z M 34.961628,125.36226 L 42.41365,125.29912 37.834137,121.872375 Z M 47.317158,23.718662 L 30.415,30.78 42.41365,26.70088 Z M 34.961628,125.36226 L 47.317158,128.28134 42.41365,125.29912 Z M 52.51453,21.211096 L 30.415,30.78 47.317158,23.718662 Z M 34.961628,125.36226 L 52.51453,130.78891 47.317158,128.28134 Z M 52.51453,21.211096 L 50.757812,17.04875 30.415,30.78 Z M 75.64,139.98 L 52.51453,130.78891 34.961628,125.36226 Z M 57.97563,19.208317 L 50.757812,17.04875 52.51453,21.211096 Z M 75.64,139.98 L 57.97563,132.79169 52.51453,130.78891 Z M 63.670326,17.740452 L 50.757812,17.04875 57.97563,19.208317 Z M 75.64,139.98 L 63.670326,134.25955 57.97563,132.79169 Z M 69.56849,16.837635 L 50.757812,17.04875 63.670326,17.740452 Z M 75.64,139.98 L 69.56849,135.16237 63.670326,134.25955 Z M 75.64,16.53 L 50.757812,17.04875 69.56849,16.837635 Z M 75.64,139.98 L 75.64,135.47 69.56849,135.16237 Z M 75.64,16.53 L 75.64,12.01 50.757812,17.04875 Z M 100.526405,134.94577 L 75.64,135.47 75.64,139.98 Z M 81.71151,16.837635 L 75.64,12.01 75.64,16.53 Z M 100.526405,134.94577 L 81.71151,135.16237 75.64,135.47 Z M 87.60967,17.740452 L 75.64,12.01 81.71151,16.837635 Z M 100.526405,134.94577 L 87.60967,134.25955 81.71151,135.16237 Z M 93.30437,19.208317 L 75.64,12.01 87.60967,17.740452 Z M 100.526405,134.94577 L 93.30437,132.79169 87.60967,134.25955 Z M 98.76547,21.211096 L 75.64,12.01 93.30437,19.208317 Z M 100.526405,134.94577 L 98.76547,130.78891 93.30437,132.79169 Z M 98.76547,21.211096 L 100.52219,17.045782 75.64,12.01 Z M 120.86875,121.22375 L 98.76547,130.78891 100.526405,134.94577 Z M 103.962845,23.718662 L 100.52219,17.045782 98.76547,21.211096 Z M 120.86875,121.22375 L 103.962845,128.28134 98.76547,130.78891 Z M 108.86635,26.70088 L 100.52219,17.045782 103.962845,23.718662 Z M 120.86875,121.22375 L 108.86635,125.29912 103.962845,128.28134 Z M 113.44586,30.12762 L 100.52219,17.045782 108.86635,26.70088 Z M 120.86875,121.22375 L 113.44586,121.872375 108.86635,125.29912 Z M 117.67125,33.96875 L 100.52219,17.045782 113.44586,30.12762 Z M 120.86875,121.22375 L 117.67125,118.03125 113.44586,121.872375 Z M 117.67125,33.96875 L 120.865,30.77125 100.52219,17.045782 Z M 134.59424,100.88484 L 117.67125,118.03125 120.86875,121.22375 Z M 121.51238,38.194138 L 120.865,30.77125 117.67125,33.96875 Z M 134.59424,100.88484 L 121.51238,113.80586 117.67125,118.03125 Z M 124.939125,42.77365 L 120.865,30.77125 121.51238,38.194138 Z M 134.59424,100.88484 L 124.939125,109.22635 121.51238,113.80586 Z M 127.92134,47.67716 L 120.865,30.77125 124.939125,42.77365 Z M 134.59424,100.88484 L 127.92134,104.322845 124.939125,109.22635 Z M 130.42891,52.87453 L 120.865,30.77125 127.92134,47.67716 Z M 134.59424,100.88484 L 130.42891,99.12547 127.92134,104.322845 Z M 130.42891,52.87453 L 134.59282,51.113594 120.865,30.77125 Z M 139.63,76 L 130.42891,99.12547 134.59424,100.88484 Z M 132.43169,58.335632 L 134.59282,51.113594 130.42891,52.87453 Z M 139.63,76 L 132.43169,93.66437 130.42891,99.12547 Z M 133.89954,64.03033 L 134.59282,51.113594 132.43169,58.335632 Z M 139.63,76 L 133.89954,87.96967 132.43169,93.66437 Z M 134.80235,69.92849 L 134.59282,51.113594 133.89954,64.03033 Z M 139.63,76 L 134.80235,82.07151 133.89954,87.96967 Z M 135.11,76 L 134.59282,51.113594 134.80235,69.92849 Z M 139.63,76 L 135.11,76 134.80235,82.07151 Z M 135.11,76 L 139.63,76 134.59282,51.113594 Z " style="fill:#000000;fill-opacity:1;" />
</svg>
