<svg version="1.2" xmlns="http://www.w3.org/2000/svg" viewBox="0 0 145 136" width="145" height="136">
	<style>
		.s0 { fill: #05a0fa } 
	</style>
	<path class="s0" d="m140.95 44.37l4.03 23.64h0.02zm4.03 23.64l-13.39 24.87-2.69 5.6zm-9.72 26.56l-17.39 18.65-7.27 11.21zm0 0l-24.67 29.87 14.46-13.11zm-24.66 29.86l-25.08 6.24-12.88 5.37zm0 0l-37.96 11.6 20.18-3.06zm-37.96 11.61l-19.01-6.93-18.94-4.67zm0 0l-37.96-11.6 17.78 8.54zm-37.96-11.59l-15.09-20.69-18.3-23.77zm0 0l-33.4-44.46 8.73 14.6zm-33.4-44.46l18.31 23.77-3.21-5.27zm0 0l7.36-11.98h-8.38zm71.36 56.06l12.88-5.36-6.35 0.97zm-56.25-98.51l-6.37 3.91-9.75 26.57zm0 0l-16.11 30.48 13.41-24.89zm11.03-14.75l7.27-11.2-24.66 29.86zm-17.4 18.66l24.67-29.86-14.46 13.11zm49.74-36.13l12.88-5.33-37.95 11.6zm-25.08 6.26l37.96-11.6-20.18 3.06zm56.96-4.69l18.95 4.69-37.95-11.6zm-19.01-6.91l37.95 11.6-17.77-8.55zm53.04 32.27l9.58 9.18-24.67-29.85zm-15.09-20.67l24.67 29.86-10.21-16.75zm25.7 49.89l8.68 6.54-9.72-26.58zm4.65-17.09l4.05 23.64-1.01-11.98zm4.03 23.64l-16.09 30.47 6.37-3.91zm-9.72 26.56l-13.26 14.11-4.14 4.55zm-24.66 29.86l-17.78 8.55 9.25-3.64zm-37.96 11.6l-20.17-3.05 9.84 2.27zm-37.95-11.6l-24.67-29.86 10.21 16.75zm-33.4-44.46l7.7-5.44-0.33-6.53zm12.4-36.86l-13.42 24.88 11.26-19zm-13.42 24.88l9.75-26.57-5.7 2.93zm27.15-45.23l-17.4 18.66 13.27-14.11zm7.27-11.2l17.77-8.55-9.24 3.64zm37.95-11.59l20.18 3.05-9.85-2.27zm53.05 32.26l-15.09-20.66 11.4 15.74zm9.58 9.18l9.72 26.58-4.03-23.64zm-115.04 69.9l-10.2-16.75 4.51 8.77zm-18.94-31.34l8.67 0.9-0.98-6.34zm10.25-30.99l-11.26 19.01 9.68-12.88zm-10.25 30.98l15.1 18.5-2.69-5.59zm-1.02-11.97l4.05-23.64-3.03 11.66zm1.01 11.98l12.4 12.9-2.15-5.87zm8.66-24.86l-9.68 12.88 8.71-6.53zm0.07 39.45l-8.73-14.6 3.03 11.67zm-1.04-33.1l-8.71 6.53h8.38zm-7.7 18.51l10.25 7.03-1.58-6.13zm22-52.65l-13.27 14.11 9.58-9.19zm11.4 97.12l-11.4-15.76-3.69-4.93zm-24.66-83l10.21-16.75-5.7 7.98zm24.67 83l-14.46-13.11 6.76 7.07zm-15.09-92.19l-9.58 9.19 6.37-3.91zm15.09 92.19l-7.27-11.22-4.14-4.54zm-14.45-99.75l14.45-13.11-7.7 6.04zm14.46 99.75l-2.72-7.08-4.55-4.13zm-2.72-105.8l2.72-7.06-7.27 11.2zm2.72 105.79l2.21-3.39-4.93-3.68zm2.2-109.49l-2.2-3.38-2.72 7.07zm-2.21 109.48l7.48-0.18-5.27-3.21zm7.48-112.69l-7.48-0.17 2.2 3.38zm-7.48 112.69l13.07 2.51-5.59-2.69zm13.07-115.4l-13.07 2.53 7.48 0.17zm-13.07 115.4l18.95 4.66-5.88-2.15zm25.08-119.13l-25.08 6.27 18.95-4.69zm-7.3 127.67l-17.78-8.54 8.54 4.9zm1.17-126.09l-18.95 4.68 13.07-2.53zm19.01 129.15l-12.88-5.35-6.13-1.58zm-20.18-133.01l20.18-3.05-10.33 0.78zm20.18 133.01l-6.54-4.38-6.34-0.98zm-6.54-131.69l6.54-4.37-12.88 5.34zm6.53 131.7v-4.05l-6.53-0.33zm0-132.03v-4.03l-6.53 4.36zm0 132.03l6.53-4.39-6.53 0.34zm19-129.15l-19-6.91 12.87 5.33zm-19 125.1l6.53-0.34-6.53 0.33zm12.88-126.68l-12.88-5.33 6.53 4.36zm7.3 127.67l-20.18 3.06 10.33-0.79zm-13.64-128.64l-6.54-4.36v4.03zm31.43 120.09l-18.95 4.67-6.13 1.58zm-17.78-121.41l17.78 8.55-8.53-4.9zm17.78 121.4l-13.07 2.51-5.88 2.15zm-13.07-115.39l13.07 2.53-18.95-4.68zm13.08 115.39l-7.48-0.19-5.6 2.7zm-7.48-112.69l7.48-0.17-13.07-2.53zm7.48 112.69l-2.2-3.39-5.28 3.2zm-2.21-109.48l2.21-3.38-7.48 0.17zm2.2 109.48l2.73-7.08-4.93 3.69zm2.72-105.8l-2.72-7.06-2.21 3.38zm11.74 92.68l-14.46 13.11 7.71-6.04zm-3.06-84.01l-11.4-15.74 7.27 11.2zm-11.4 97.12l7.27-11.22-4.55 4.14zm0-112.86l14.45 13.1-6.75-7.06zm24.66 82.99l-10.2 16.75 5.69-7.98zm-17.4-71.8l-7.27-11.19 2.73 7.06zm17.39 71.8l-9.57 9.18-3.69 4.93zm-10.21-69.89l10.21 16.75-4.51-8.77zm10.21 69.88l-6.37 3.91-3.21 5.28zm-6.36-57.05l6.36 3.91-9.57-9.19zm16.09 30.49l-9.72 26.56 5.67-2.92zm-13.39-24.9l3.67-1.68-6.37-3.91zm13.39 24.9l-11.23 19-2.16 5.87zm-11.23-19.02l1.51-7.56-3.67 1.69zm11.24 19.02l-4.05 23.64 3.03-11.67zm-9.65-12.89l-0.07-13.69-1.51 7.56zm9.65 12.9l-9.65 12.87-1.58 6.12zm-8.68-6.54l-1.04-20.04 0.07 13.69zm8.68 6.55l-8.68 6.52-0.97 6.35zm-9.72-26.58l5.69 2.94 0.01-0.01zm9.72 26.58l-8.35-0.01-0.33 6.53zm-8.35-0.01l8.35 0.01-8.69-6.54z"/>
</svg>