<svg version="1.2" xmlns="http://www.w3.org/2000/svg" viewBox="0 0 145 136" width="145" height="136">
	<style>
		.s0 { fill: #000000 } 
	</style>
	<path class="s0" d="m135.3 41.5l-10.28 69.68 18.94-31.33zm8.66 14.41v23.94l1.04-11.95zm0 23.94l-18.94 31.33 10.18-16.78zm-33.38-68.25l14.44 99.58 10.28-69.68zm14.43 99.58l-72.59 21.65 40.36 0.01zm0 0l-32.24 21.67 17.79-8.54zm-32.24 21.66l-40.36-0.01 20.17 3.07zm-20.19 3.05l-20.17-3.07 9.84 2.28zm52.43-24.72l-123.79-31.33 51.19 52.99zm-72.6 21.65l-51.19-52.98 18.98 31.29zm58.16-121.24l-109.35 68.25 123.79 31.33zm-90.37 99.54l-18.98-31.29 8.76 14.55zm-18.98-31.29v-23.9l-1.03 11.95zm0 0l109.35-68.25-75.93-0.01zm0 0l33.43-68.26-24.67 29.81zm8.77-38.45l24.66-29.81-14.45 13.09zm24.67-29.81l75.92 0.01-37.99-11.6zm0 0l37.94-11.59-20.17 3.06zm37.94-11.59l37.98 11.6-17.8-8.55zm20.19 3.05l17.8 8.55-8.54-4.9zm17.8 8.55l24.71 29.9-10.23-16.78zm14.48 13.12l10.23 16.78-4.53-8.79zm10.24 16.78l8.66 38.35v-23.94zm8.66 38.35l-8.76 14.55 5.7-2.9zm-18.94 31.33l-14.45 13.12 7.7-6.05zm-32.24 21.67l-20.18 3.05 10.33-0.78zm-40.36-0.01l-32.21-21.7 14.45 13.13zm-32.21-21.7l-10.22-16.73 4.52 8.76zm-18.98-31.29l8.77-38.45-8.77 14.55zm8.77-38.45l10.21-16.72-5.69 7.96zm24.66-29.81l17.77-8.53-9.24 3.64zm37.93-11.59l20.19 3.05-9.85-2.27zm37.99 11.6l14.48 13.12-6.77-7.07zm24.71 29.9l8.66 14.41-3.06-11.61zm-24.72 82.8l-17.79 8.54 9.25-3.64zm-75.91-0.04l-14.45-13.12 6.75 7.07zm-33.42-68.31l8.76-14.55-5.7 2.9zm51.19-52.9l20.17-3.05-10.33 0.78zm82.78 91.35l-10.18 16.78 5.68-7.99zm-82.77 38.43l-17.77-8.57 8.53 4.91zm-32.21-108.15l14.44-13.09-7.69 6.03zm-10.22 69.72l-8.76-14.55 3.06 11.65z"/>
</svg>