<svg version="1.2" xmlns="http://www.w3.org/2000/svg" viewBox="0 0 100 98" width="100" height="98">
	<style>
		.s0 { fill: #01cef4 } 
	</style>
	<path class="s0" d="m67.44 39.45l-0.44 21.89 0.8-20.44zm0.36 1.45l-0.8 20.44 0.71-1.34zm-0.8 20.44l-33.9-0.06 16.99 9.97zm0 0l-16.91 9.91 1.51-0.45zm-16.91 9.91l-16.99-9.96 15.4 9.51zm-1.59-0.45l-15.39-9.51 0.59 0.51zm-15.39-9.51l0.59-22.99-1.4 2.6zm0 0l-0.8-20.38 0.09 19.05zm-0.8-20.38l1.4-2.6-1.03 1.07zm0.36-1.52l1.04-1.08-0.6 0.46zm1.03-1.07l33.74 1.15-16.62-10.49zm15.53-9.34h1.59l-0.8-0.11zm1.59 0l16.62 10.49-1.04-1.15zm-17.72 32.32l34.34-21.83-33.74-1.15zm34.34-21.84l0.36 1.45-0.09-0.74zm0.36 1.45l-0.09 19.1 0.09-0.8zm-0.8 20.44l-15.4 9.46 14.8-9zm-16.91 9.91l-1.59-0.45 0.78 0.34zm-16.98-9.97l-0.71-1.34 0.27 0.71zm-0.8-20.38l0.36-1.53-0.27 0.73zm1.4-2.6l17.12-9.34h-1.6zm17.12-9.34l15.58 9.34-14.8-9zm16.89 31.04l-0.71 1.34 0.44-0.62zm-16.11 10.8l-1.51 0.45 0.79-0.11zm-19.21-10.85l-0.09-19.05v18.3zm1.31-21.64l15.52-9.34-0.72 0.34zm33.73 1.15l-34.33 21.83 33.89 0.06zm-1.03-1.15l1.03 1.15-0.43-0.64z"/>
	<path class="s0" d="m46.4 10.2l-0.9 12.1 0.1 0.2zm-13.5-7.8l-1.79 29.48 15.01-23.26zm13.21 6.23l-15.01 23.25 14.4-9.58zm-0.62 13.68l-14.39 9.58 12.79-6.78zm-12.91 9.58h-1.48l0.74 0.09zm-1.49 0l1.8-29.48-14.26 20.52zm0 0l-12.47-8.97 0.82 1.92zm-11.65-7.04l-0.82-1.93 0.26 1.04zm-0.56-0.89l-0.25-1.03 0.09 0.53zm-0.26-1.04l0.06-1.11-0.07 0.56zm0 0l14.25-20.51-11.45 6.31zm2.8-14.19l11.45-6.32-10.49 5.05zm0.97-1.27l10.49-5.05-9.8 4.6zm10.49-5.04h2.4l-1.2-0.3zm1.2-0.3l1.2 0.3-0.6-0.23zm-1.2 0.3l13.22 6.22-10.82-6.22zm2.4 0l10.82 6.22-0.81-1.25zm10.81 6.23l-0.61 13.67 0.86-12.65zm0.26 1.03l-0.87 12.65 0.9-12.1zm-0.87 12.65l-1.6 2.8 1.18-1.17zm-1.6 2.8l-12.8 6.78h1.49zm-12.79 6.78l-11.65-7.05 0.84 0.67zm-11.65-7.05l-0.56-0.88 0.25 0.46zm-0.82-1.92l2.8-14.2-2.74 13.08zm2.8-14.19l0.97-1.27-0.56 0.58zm11.46-6.32l1.2-0.3-0.6 0.08zm2.4 0l10 4.97-0.8-0.57zm10.81 6.22l0.25 1.02-0.09-0.52zm-1.04 15.3l-1.18 1.17 0.68-0.52zm-24.78 1.58l-0.84-0.67 0.39 0.37zm-1.6-3.7l2.74-13.09-0.24 0.79zm26.6-14.43l0.81 1.25-0.21-0.46zm0.19 14.93l-0.42 1.62 0.31-0.76zm-14.39 9.58l-10.81-6.38 10.1 6.1zm12.8-6.78l-11.31 6.78 0.71-0.28z"/>
	<path class="s0" d="m55.43 24.58l9.87-22.4-11.7 8.02zm-1.83-14.38l11.7-8.02-11.2 5.98zm0 0l0.5-2.03-0.37 0.95zm0.5-2.03l11.2-5.99-9.8 4.62zm26.05 17.04l-14.85-23.02-9.87 22.4zm-14.86-23.03h1.2l-0.6-0.07zm0 0l14.86 23.03-1.36-15.71zm0 0l13.5 7.33-1.9-2.5zm11.6 4.82l1.9 2.5-0.65-1.47zm1.9 2.5l2.47 13.94 0.1-1.08zm2.58 12.86l-0.11 1.08 0.09-0.53zm-2.57-12.86l1.36 15.7 1.11-1.75zm2.47 13.94l-1.11 1.76 0.7-0.79zm-1.12 1.76l-24.72-0.62 12.72 7.39zm0 0l-12 6.78 1.45-0.38zm-12.01 6.78l-12.72-7.4 11.27 7.02zm-1.45-0.37l-11.27-7.03 0.67 0.53zm-11.27-7.03l-1.83-14.37 1.01 12.95zm-0.82-1.41l-1.01-12.96 0.9 12.1zm-1.01-12.96l0.13-1.08-0.09 0.53zm0.5-2.04l1.4-1.36-0.81 0.57zm11.2-5.99l11.6 4.83-10.4-4.83zm11.6 4.83l1.25 1.02-0.56-0.58zm1.9 2.5l2.57 12.86-0.07-0.56zm2.47 13.95l-0.41 0.97 0.24-0.47zm-1.11 1.76l-10.56 6.4 10.1-6.1zm-12 6.77l-1.45-0.37 0.71 0.28zm-13.65-9.68l-0.9-12.1 0.8 12.3zm-0.78-13.18l0.38-0.96-0.22 0.47zm12.77-6.95l10.4 4.83-9.8-4.6zm14.36 22.24l-0.7 0.78 0.38-0.36zm-11.25 7.18l-1.45 0.38 0.74-0.1zm-14.17-7.02l-0.82-1.42 0.32 0.77zm22.72-16.56l0.65 1.48-0.24-0.79zm-22.65-1.22l9.8-4.63-0.6 0.23z"/>
	<path class="s0" d="m44.57 75.42l-9.87 22.41 11.7-8.03zm1.83 14.38l-11.7 8.02 11.2-5.98zm0 0l-0.5 2.03 0.37-0.95zm-0.5 2.03l-11.2 5.99 9.8-4.62zm-26.05-17.04l14.85 23.02 9.87-22.4zm14.86 23.03h-1.2l0.6 0.07zm0 0l-14.86-23.03 1.36 15.71zm0 0l-13.5-7.33 1.9 2.5zm-11.6-4.82l-1.9-2.5 0.65 1.47zm-1.9-2.5l-2.47-13.94-0.1 1.08zm-2.58-12.86l0.11-1.08-0.09 0.53zm2.57 12.86l-1.36-15.7-1.11 1.75zm-2.47-13.94l1.11-1.76-0.7 0.79zm1.12-1.76l24.72 0.62-12.72-7.39zm0 0l12-6.78-1.45 0.38zm12.01-6.78l12.72 7.4-11.27-7.02zm1.45 0.37l11.27 7.03-0.67-0.53zm11.27 7.03l1.83 14.37-1.01-12.95zm0.82 1.41l1.01 12.96-0.9-12.1zm1.01 12.96l-0.13 1.08 0.09-0.53zm-0.5 2.04l-1.4 1.36 0.81-0.57zm-11.2 5.99l-11.6-4.83 10.4 4.83zm-11.6-4.83l-1.25-1.02 0.56 0.58zm-1.9-2.5l-2.57-12.86 0.07 0.56zm-2.47-13.95l0.41-0.97-0.24 0.47zm1.11-1.76l10.56-6.4-10.1 6.1zm12-6.77l1.45 0.37-0.71-0.28zm13.65 9.68l0.9 12.1-0.8-12.3zm0.78 13.18l-0.38 0.96 0.22-0.47zm-12.77 6.95l-10.4-4.83 9.8 4.6zm-14.36-22.24l0.7-0.78-0.38 0.36zm11.25-7.18l1.45-0.38-0.74 0.1zm14.17 7.02l0.82 1.42-0.32-0.77zm-22.72 16.56l-0.65-1.48 0.24 0.79zm22.65 1.22l-9.8 4.63 0.6-0.23z"/>
	<path class="s0" d="m53.6 89.8l0.9-12.1-0.1-0.2zm13.5 7.8l1.79-29.48-15.01 23.26zm-13.21-6.23l15.01-23.25-14.4 9.58zm0.62-13.68l14.39-9.58-12.79 6.78zm12.91-9.58h1.48l-0.74-0.09zm1.49 0l-1.8 29.48 14.26-20.52zm0 0l12.47 8.97-0.82-1.92zm11.65 7.04l0.82 1.93-0.26-1.04zm0.56 0.89l0.26 1.03-0.1-0.53zm0.26 1.04l-0.06 1.11 0.07-0.56zm0 0l-14.25 20.51 11.45-6.31zm-2.8 14.19l-11.45 6.32 10.49-5.05zm-0.97 1.27l-10.49 5.05 9.8-4.6zm-10.49 5.05h-2.4l1.2 0.3zm-1.2 0.3l-1.2-0.3 0.6 0.22zm1.2-0.3l-13.22-6.22 10.82 6.22zm-2.4 0l-10.82-6.22 0.81 1.25zm-10.81-6.23l0.61-13.67-0.86 12.65zm-0.26-1.03l0.87-12.65-0.9 12.1zm0.87-12.65l1.6-2.8-1.18 1.17zm1.6-2.8l12.8-6.78h-1.49zm12.79-6.78l11.65 7.05-0.84-0.67zm11.65 7.05l0.56 0.88-0.25-0.46zm0.82 1.92l-2.8 14.2 2.74-13.08zm-2.8 14.19l-0.97 1.27 0.56-0.58zm-11.46 6.32l-1.2 0.3 0.6-0.08zm-2.4 0l-10-4.97 0.8 0.57zm-10.81-6.22l-0.25-1.02 0.09 0.52zm1.04-15.3l1.18-1.17-0.68 0.52zm24.78-1.58l0.84 0.67-0.39-0.37zm1.6 3.7l-2.74 13.09 0.24-0.79zm-26.6 14.43l-0.81-1.25 0.21 0.46zm-0.19-14.93l0.42-1.62-0.31 0.76zm14.39-9.58l10.81 6.38-10.1-6.1zm-12.8 6.78l11.31-6.78-0.71 0.28z"/>
	<path class="s0" d="m99.9 42.6l-26.53 16.68 14.73 9.32zm0 0l-11.8 26 11.74-10.28zm-0.05 15.72l-11.75 10.28 11.3-9.31zm-11.75 10.28h-3.1l1.55 0.49zm-1.55 0.49l-1.55-0.49 0.74 0.38zm1.55-0.49l-14.73-9.32 11.63 9.32zm-3.1 0l-11.63-9.32 0.52 1.01zm-11.63-9.32l0.21-18.69-0.28 1.11zm-0.07-17.58l0.27-1.11-0.2 0.53zm0.07 17.58l26.53-16.68-14.12-11.24zm0 0l12.41-27.91-12.21 9.22zm12.41-27.91l1.6 0.02-0.79-0.15zm0 0l14.12 11.24-0.9-1.9zm13.22 9.33l0.9 1.9-0.22-1.06zm0.67 0.84l0.23 1.06-0.06-0.54zm0.22 1.07l-0.05 15.72 0.05-0.92zm-0.05 15.72l-0.45 0.97 0.28-0.47zm-11.74 10.28l-1.55 0.49 0.81-0.14zm-3.1 0l-11.11-8.31 0.41 0.41zm-11.63-9.32l-0.07-17.58v17zm0.2-18.69l12.21-9.23-11.48 8.34zm12.2-9.22l13.22 9.33-11.62-9.3zm13.22 9.33l0.67 0.84-0.28-0.47zm0.9 16.7l-0.05 0.92 0.05-0.52zm-26.01 2.89l-0.52-1.01 0.21 0.53zm0.41-20.59l11.48-8.33-0.78 0.43zm13.07-8.31l11.63 9.31-10.9-8.9zm12.01 27.9l-11.29 9.31 10.9-8.9zm-25.82-18.7l0.73-0.89-0.41 0.41z"/>
	<path class="s0" d="m0.16 57.92l0.74-17.22-0.9 1.9zm-0.16-15.32l0.9-1.9-0.67 0.84zm26.32-2.02l-26.16 17.34 14.74 10.68zm-25.43 0.11l25.43-0.11-12.21-9.23zm11.63-9.31l1.59-0.02-0.8-0.13zm1.59-0.03l12.21 9.22-0.73-0.88zm11.48 8.33l0.73 0.89-0.32-0.48zm0.73 0.89l0.2 18.69 0.07-17.58zm0.28 1.12l-0.07 17.58 0.07-0.58zm-0.28-1.12l-11.42 28.02 11.63-9.32zm0.2 18.69l-11.63 9.32 11.11-8.31zm-11.63 9.32h-3.1l1.55 0.49zm-1.55 0.48l-1.55-0.48 0.74 0.35zm1.55-0.49l-14.74-10.68 11.64 10.68zm-3.1 0l-11.64-10.68 0.45 0.97zm-11.65-10.68l-0.15-15.32 0.1 14.8zm-0.16-15.32l0.22-1.06-0.16 0.52zm0.9-1.9l13.22-9.33-1.6 0.02zm13.22-9.33l11.48 8.33-10.7-7.9zm12.2 9.23l0.28 1.11-0.07-0.58zm0.2 18.69l-0.52 1.01 0.32-0.47zm-11.63 9.32l-1.55 0.48 0.81-0.1zm-3.1 0l-11.19-9.71 0.39 0.41zm-11.7-11.2l-0.1-14.8v14.8zm0.8-16.7l11.62-9.31-0.72 0.41zm25.11 19.59l-11.11 8.31 10.7-7.9zm-25.4-1.4l-0.45-0.97 0.17 0.5zm-0.45-0.97l26.17-17.33-25.43 0.11zm0.07-16.38l0.67-0.84-0.39 0.37z"/>
</svg>