<svg x="1.9300003" y="2.87" viewBox="0 0 38.070004 37.23" xmlns="http://www.w3.org/2000/svg">
	<path d="M 14.57,13.26 L 19.419687,3.2462502 18.99,3.73 Z M 19.419687,3.2462502 L 20.590313,3.2462502 20.005001,3.085 Z M 20.590313,3.2462502 L 25.44,13.26 21.02,3.73 Z M 26.32,13.9 L 37.342033,15.416563 36.75,15.16 Z M 37.342033,15.416563 L 37.70484,16.529686 37.676247,15.9225 Z M 37.70484,16.529686 L 29.69,24.24 37.38,17.09 Z M 29.35,25.27 L 31.306406,36.22297 31.37,35.58 Z M 31.306406,36.22297 L 30.36172,36.908905 30.92875,36.696247 Z M 30.36172,36.908905 L 20.55,31.66 29.73,36.77 Z M 19.46,31.66 L 9.648281,36.908905 10.28,36.77 Z M 9.648281,36.908905 L 8.703594,36.22297 9.08125,36.696247 Z M 8.703594,36.22297 L 10.66,25.27 8.64,35.58 Z M 10.32,24.24 L 2.299531,16.531094 2.63,17.09 Z M 2.299531,16.531094 L 2.6623435,15.420781 2.3262498,15.92625 Z M 2.6623435,15.420781 L 13.69,13.9 3.26,15.16 Z M 14.57,13.26 L 20.590313,3.2462502 19.419687,3.2462502 Z M 26.32,13.9 L 37.70484,16.529686 37.342033,15.416563 Z M 29.35,25.27 L 30.36172,36.908905 31.306406,36.22297 Z M 19.46,31.66 L 8.703594,36.22297 9.648281,36.908905 Z M 10.32,24.24 L 2.6623435,15.420781 2.299531,16.531094 Z M 14.57,13.26 L 25.44,13.26 20.590313,3.2462502 Z M 26.32,13.9 L 29.69,24.24 37.70484,16.529686 Z M 29.35,25.27 L 20.55,31.66 30.36172,36.908905 Z M 19.46,31.66 L 10.66,25.27 8.703594,36.22297 Z M 10.32,24.24 L 13.69,13.9 2.6623435,15.420781 Z M 14.2125,13.692499 L 25.44,13.26 14.57,13.26 Z M 25.7975,13.692499 L 29.69,24.24 26.32,13.9 Z M 29.388752,24.71 L 20.55,31.66 29.35,25.27 Z M 20.005,31.517498 L 10.66,25.27 19.46,31.66 Z M 10.625,24.71 L 13.69,13.9 10.32,24.24 Z M 13.69,13.9 L 25.44,13.26 14.2125,13.692499 Z M 25.44,13.26 L 29.69,24.24 25.7975,13.692499 Z M 29.69,24.24 L 20.55,31.66 29.388752,24.71 Z M 20.55,31.66 L 10.66,25.27 20.005,31.517498 Z M 10.66,25.27 L 13.69,13.9 10.625,24.71 Z M 13.69,13.9 L 29.69,24.24 25.44,13.26 Z M 29.69,24.24 L 10.66,25.27 20.55,31.66 Z M 10.66,25.27 L 29.69,24.24 13.69,13.9 Z " style="fill:#FF39CC;fill-opacity:1;" />
</svg>
