<svg x="0" y="0" viewBox="0 0 272.87 272.86" xmlns="http://www.w3.org/2000/svg">
	<path d="M 86.21703,52.901875 L 44.83,35.33 72.44,62.94 Z M 44.83,35.33 L 86.48625,9.43375 64.39766,20.549534 Z M 86.48625,9.43375 L 136.43,0 110.64671,2.4335938 Z M 136.43,0 L 186.37375,9.43375 162.21329,2.4335938 Z M 186.37375,9.43375 L 228.03,35.33 208.46234,20.549534 Z M 228.03,35.33 L 186.64297,52.901875 200.42,62.94 Z M 101.67125,45.364998 L 44.83,35.33 86.21703,52.901875 Z M 44.83,35.33 L 136.43,0 86.48625,9.43375 Z M 136.43,0 L 228.03,35.33 186.37375,9.43375 Z M 228.03,35.33 L 171.18875,45.364998 186.64297,52.901875 Z M 118.50734,40.625626 L 44.83,35.33 101.67125,45.364998 Z M 44.83,35.33 L 228.03,35.33 136.43,0 Z M 228.03,35.33 L 154.35265,40.625626 171.18875,45.364998 Z M 136.43,38.98 L 44.83,35.33 118.50734,40.625626 Z M 228.03,35.33 L 136.43,38.98 154.35265,40.625626 Z M 136.43,38.98 L 228.03,35.33 44.83,35.33 Z " style="fill:#EE6517;fill-opacity:1;" />
	<path d="M 208.7,71.06 L 251.5778,63.22906 236.29,43.48 Z M 251.5778,63.22906 L 270.34094,110.17844 263.0875,85.619995 Z M 270.34094,110.17844 L 272.86,136.43 272.22217,123.12222 Z M 272.86,136.43 L 270.0883,163.9259 272.15564,150.37946 Z M 270.0883,163.9259 L 262.1389,189.53546 266.72653,177.00076 Z M 262.1389,189.53546 L 249.56035,212.7101 256.39398,201.46143 Z M 249.56035,212.7101 L 232.90125,232.90125 241.70657,223.21289 Z M 232.90125,232.90125 L 212.7101,249.56035 223.21289,241.70657 Z M 212.7101,249.56035 L 189.53546,262.1389 201.46143,256.39398 Z M 189.53546,262.1389 L 163.9259,270.0883 177.00076,266.72653 Z M 163.9259,270.0883 L 136.43,272.86 150.37946,272.15564 Z M 136.43,272.86 L 108.93408,270.0883 122.48053,272.15564 Z M 108.93408,270.0883 L 83.324524,262.1389 95.85922,266.72653 Z M 83.324524,262.1389 L 60.1499,249.56035 71.39856,256.39398 Z M 60.1499,249.56035 L 39.958748,232.90125 49.647102,241.70657 Z M 39.958748,232.90125 L 23.299627,212.7101 31.153399,223.21289 Z M 23.299627,212.7101 L 10.721094,189.53546 16.466003,201.46143 Z M 10.721094,189.53546 L 2.7716994,163.9259 6.1334696,177.00076 Z M 2.7716994,163.9259 L 0,136.43 0.7043531,150.37946 Z M 0,136.43 L 2.5248437,110.17844 0.6411523,123.12222 Z M 2.5248437,110.17844 L 21.29203,63.22906 9.78125,85.619995 Z M 21.29203,63.22906 L 64.16,71.07 36.58,43.48 Z M 106.03,131.35 L 130.67,161.18 130.67,71.83 Z M 196.34,213.29 L 142.19,71.82 142.19,161.18 Z M 219.23671,85.031555 L 251.5778,63.22906 208.7,71.06 Z M 251.5778,63.22906 L 272.86,136.43 270.34094,110.17844 Z M 272.86,136.43 L 262.1389,189.53546 270.0883,163.9259 Z M 262.1389,189.53546 L 232.90125,232.90125 249.56035,212.7101 Z M 232.90125,232.90125 L 189.53546,262.1389 212.7101,249.56035 Z M 189.53546,262.1389 L 136.43,272.86 163.9259,270.0883 Z M 136.43,272.86 L 83.324524,262.1389 108.93408,270.0883 Z M 83.324524,262.1389 L 39.958748,232.90125 60.1499,249.56035 Z M 39.958748,232.90125 L 10.721094,189.53546 23.299627,212.7101 Z M 10.721094,189.53546 L 0,136.43 2.7716994,163.9259 Z M 0,136.43 L 21.29203,63.22906 2.5248437,110.17844 Z M 21.29203,63.22906 L 53.62328,85.04156 64.16,71.07 Z M 51.35,183.97 L 130.67,161.18 106.03,131.35 Z M 196.34,213.29 L 166.83,131.34 142.19,71.82 Z M 227.15875,100.7975 L 251.5778,63.22906 219.23671,85.031555 Z M 251.5778,63.22906 L 262.1389,189.53546 272.86,136.43 Z M 262.1389,189.53546 L 189.53546,262.1389 232.90125,232.90125 Z M 189.53546,262.1389 L 83.324524,262.1389 136.43,272.86 Z M 83.324524,262.1389 L 10.721094,189.53546 39.958748,232.90125 Z M 10.721094,189.53546 L 21.29203,63.22906 0,136.43 Z M 21.29203,63.22906 L 45.70125,100.807495 53.62328,85.04156 Z M 51.35,183.97 L 76.52,213.29 130.67,161.18 Z M 196.34,213.29 L 221.51,183.96 166.83,131.34 Z M 232.14641,118.037186 L 251.5778,63.22906 227.15875,100.7975 Z M 10.721094,189.53546 L 45.70125,100.807495 21.29203,63.22906 Z M 233.88,136.43 L 251.5778,63.22906 232.14641,118.037186 Z M 10.721094,189.53546 L 40.713593,118.04719 45.70125,100.807495 Z M 233.05533,149.16092 L 251.5778,63.22906 233.88,136.43 Z M 10.721094,189.53546 L 38.98,136.44 40.713593,118.04719 Z M 230.65001,161.39499 L 251.5778,63.22906 233.05533,149.16092 Z M 10.721094,189.53546 L 39.80609,149.17093 38.98,136.44 Z M 230.65001,161.39499 L 262.1389,189.53546 251.5778,63.22906 Z M 10.721094,189.53546 L 42.213753,161.405 39.80609,149.17093 Z M 226.76718,173.02905 L 262.1389,189.53546 230.65001,161.39499 Z M 10.721094,189.53546 L 46.09703,173.03906 42.213753,161.405 Z M 221.51,183.96 L 262.1389,189.53546 226.76718,173.02905 Z M 83.324524,262.1389 L 46.09703,173.03906 10.721094,189.53546 Z M 196.34,213.29 L 262.1389,189.53546 221.51,183.96 Z M 83.324524,262.1389 L 51.35,183.97 46.09703,173.03906 Z M 183.18219,221.94937 L 262.1389,189.53546 196.34,213.29 Z M 83.324524,262.1389 L 76.52,213.29 51.35,183.97 Z M 168.6575,228.4225 L 262.1389,189.53546 183.18219,221.94937 Z M 83.324524,262.1389 L 89.67782,221.94937 76.52,213.29 Z M 168.6575,228.4225 L 189.53546,262.1389 262.1389,189.53546 Z M 83.324524,262.1389 L 104.2025,228.4225 89.67782,221.94937 Z M 152.99657,232.47688 L 189.53546,262.1389 168.6575,228.4225 Z M 189.53546,262.1389 L 104.2025,228.4225 83.324524,262.1389 Z M 136.43,233.88 L 189.53546,262.1389 152.99657,232.47688 Z M 189.53546,262.1389 L 119.863434,232.47688 104.2025,228.4225 Z M 119.863434,232.47688 L 189.53546,262.1389 136.43,233.88 Z " style="fill:#383F4A;fill-opacity:1;" />
	<path d="M 236.18,250.1 L 235.7,251.53 236.18,251.53 Z M 235.7,251.53 L 236.18,248.12 235.7,247.67 Z M 237.22,248.12 L 235.7,247.67 236.18,248.12 Z M 235.7,247.67 L 238.13126,247.99625 237.27,247.67 Z M 238.13126,247.99625 L 238.23625,249.63126 238.46,248.87 Z M 237.63,250.04 L 237.94,251.52 238.51,251.52 Z M 235.7,251.53 L 236.18,249.65 236.18,248.12 Z M 237.22,248.12 L 238.13126,247.99625 235.7,247.67 Z M 237.63,250.04 L 237.12,250.1 237.94,251.52 Z M 236.18,250.1 L 236.18,249.65 235.7,251.53 Z M 237.76749,248.32874 L 238.13126,247.99625 237.22,248.12 Z M 238.23625,249.63126 L 237.12,250.1 237.63,250.04 Z M 237.12,250.1 L 236.18,249.65 236.18,250.1 Z M 237.97,248.89 L 238.13126,247.99625 237.76749,248.32874 Z M 237.12,250.1 L 237.22,249.65 236.18,249.65 Z M 237.97,248.89 L 238.23625,249.63126 238.13126,247.99625 Z M 238.23625,249.63126 L 237.22,249.65 237.12,250.1 Z M 237.76376,249.4425 L 238.23625,249.63126 237.97,248.89 Z M 238.23625,249.63126 L 237.76376,249.4425 237.22,249.65 Z " style="fill:#383F4A;fill-opacity:1;" />
	<path d="M 237.71603,253.12653 L 236.26395,253.12653 236.99,253.2 Z M 236.26395,253.12653 L 234.97644,252.58301 235.58797,252.91594 Z M 234.97644,252.58301 L 234.00436,251.60918 234.44376,252.14249 Z M 234.00436,251.60918 L 233.46307,250.32317 233.67267,250.9978 Z M 233.46307,250.32317 L 233.87,249.6 233.39,249.6 Z M 233.93352,248.97212 L 233.39,249.6 233.87,249.6 Z M 233.39,249.6 L 233.67406,248.2022 233.46347,248.87685 Z M 233.67406,248.2022 L 234.44751,247.0575 234.00699,247.59082 Z M 234.44751,247.0575 L 235.5922,246.28406 234.98082,246.61699 Z M 235.5922,246.28406 L 236.99,246 236.26683,246.07349 Z M 236.99,246 L 238.38782,246.28406 237.71318,246.07349 Z M 238.38782,246.28406 L 239.5325,247.0575 238.99919,246.61699 Z M 239.5325,247.0575 L 240.30594,248.2022 239.973,247.59082 Z M 240.30594,248.2022 L 240.59,249.6 240.51651,248.87685 Z M 240.59,249.6 L 240.30734,250.9978 240.51694,250.32317 Z M 240.30734,250.9978 L 239.53625,252.14249 239.97565,251.60918 Z M 239.53625,252.14249 L 238.39203,252.91594 239.00357,252.58301 Z M 238.39203,252.91594 L 236.26395,253.12653 237.71603,253.12653 Z M 236.26395,253.12653 L 234.00436,251.60918 234.97644,252.58301 Z M 234.00436,251.60918 L 233.87,249.6 233.46307,250.32317 Z M 234.11562,248.38687 L 233.39,249.6 233.93352,248.97212 Z M 233.39,249.6 L 234.44751,247.0575 233.67406,248.2022 Z M 234.44751,247.0575 L 236.99,246 235.5922,246.28406 Z M 236.99,246 L 239.5325,247.0575 238.38782,246.28406 Z M 239.5325,247.0575 L 240.59,249.6 240.30594,248.2022 Z M 240.59,249.6 L 239.53625,252.14249 240.30734,250.9978 Z M 239.53625,252.14249 L 236.26395,253.12653 238.39203,252.91594 Z M 234.00436,251.60918 L 233.93352,250.22789 233.87,249.6 Z M 234.40366,247.85693 L 233.39,249.6 234.11562,248.38687 Z M 234.00436,251.60918 L 234.11562,250.81313 233.93352,250.22789 Z M 234.40366,247.85693 L 234.44751,247.0575 233.39,249.6 Z M 234.00436,251.60918 L 234.40366,251.34305 234.11562,250.81313 Z M 234.785,247.39499 L 234.44751,247.0575 234.40366,247.85693 Z M 234.00436,251.60918 L 234.785,251.805 234.40366,251.34305 Z M 235.24695,247.01366 L 234.44751,247.0575 234.785,247.39499 Z M 236.26395,253.12653 L 234.785,251.805 234.00436,251.60918 Z M 235.77687,246.72562 L 234.44751,247.0575 235.24695,247.01366 Z M 236.26395,253.12653 L 235.24695,252.18634 234.785,251.805 Z M 236.3621,246.5435 L 234.44751,247.0575 235.77687,246.72562 Z M 236.26395,253.12653 L 235.77687,252.47438 235.24695,252.18634 Z M 236.3621,246.5435 L 236.99,246 234.44751,247.0575 Z M 236.26395,253.12653 L 236.3621,252.65648 235.77687,252.47438 Z M 236.99,246.48 L 236.99,246 236.3621,246.5435 Z M 236.26395,253.12653 L 236.99,252.72 236.3621,252.65648 Z M 237.6179,246.5435 L 236.99,246 236.99,246.48 Z M 236.26395,253.12653 L 237.6179,252.65648 236.99,252.72 Z M 238.20314,246.72562 L 236.99,246 237.6179,246.5435 Z M 239.53625,252.14249 L 237.6179,252.65648 236.26395,253.12653 Z M 238.73306,247.01366 L 236.99,246 238.20314,246.72562 Z M 239.53625,252.14249 L 238.20314,252.47438 237.6179,252.65648 Z M 238.73306,247.01366 L 239.5325,247.0575 236.99,246 Z M 239.53625,252.14249 L 238.73306,252.18634 238.20314,252.47438 Z M 239.195,247.39499 L 239.5325,247.0575 238.73306,247.01366 Z M 239.53625,252.14249 L 239.195,251.805 238.73306,252.18634 Z M 239.57634,247.85693 L 239.5325,247.0575 239.195,247.39499 Z M 239.53625,252.14249 L 239.57634,251.34305 239.195,251.805 Z M 239.86438,248.38687 L 239.5325,247.0575 239.57634,247.85693 Z M 240.59,249.6 L 239.57634,251.34305 239.53625,252.14249 Z M 240.0465,248.97212 L 239.5325,247.0575 239.86438,248.38687 Z M 240.59,249.6 L 239.86438,250.81313 239.57634,251.34305 Z M 240.0465,248.97212 L 240.59,249.6 239.5325,247.0575 Z M 240.59,249.6 L 240.0465,250.22789 239.86438,250.81313 Z M 240.11,249.6 L 240.59,249.6 240.0465,248.97212 Z M 240.59,249.6 L 240.11,249.6 240.0465,250.22789 Z " style="fill:#383F4A;fill-opacity:1;" />
</svg>
